<svg xmlns="http://www.w3.org/2000/svg" width="423" height="590" viewBox="0 0 423 590">
<g>
<path d="M 246.44 254.44 L 246.16 249.82 C245.88,245.06 245.55,244.22 244.16,244.65 C243.21,244.94 243.65,244.16 245.19,242.83 C249.48,239.11 251.39,231.46 249.09,227.18 C247.64,224.45 229.93,224.98 222.57,227.97 C218.64,229.57 216.22,230.00 214.26,229.46 C210.55,228.43 208.96,228.48 206.00,229.73 C198.98,232.69 198.64,232.72 195.26,230.73 L 191.97 228.78 L 192.98 231.46 C194.23,234.73 194.32,240.69 193.13,241.42 C192.65,241.72 191.99,243.32 191.65,244.98 C191.24,247.06 190.46,248.00 189.16,248.00 C187.82,248.00 187.27,248.84 186.67,252.42 C187.14,247.77 186.05,247.04 181.21,247.02 C176.10,246.99 171.24,244.09 168.87,239.73 C170.08,241.66 171.08,241.07 172.16,237.98 C172.74,236.32 174.07,234.50 175.12,233.93 C176.81,233.03 177.02,231.82 176.92,223.55 C176.80,214.79 177.00,213.81 179.99,208.34 C181.75,205.13 184.64,200.70 186.42,198.50 C191.02,192.79 191.21,192.31 189.79,190.04 C188.45,187.88 186.79,187.53 184.75,189.01 C187.89,185.65 191.51,182.94 195.52,181.00 C199.26,179.18 200.61,179.11 214.52,179.97 C236.29,181.33 244.74,183.87 252.93,191.53 C257.94,196.22 258.72,197.76 263.10,211.50 C265.70,219.68 266.25,232.19 264.10,234.23 C263.03,235.24 262.66,235.24 262.29,234.25 C260.73,230.00 254.71,235.80 253.38,242.83 C253.03,244.66 252.13,246.40 251.37,246.69 C250.62,246.98 249.11,249.23 248.02,251.68 C247.70,252.40 247.15,253.36 246.44,254.44 ZM 223.74 590.00 L 224.24 586.25 C225.52,576.62 223.45,555.42 220.57,548.50 C219.32,545.52 219.39,545.05 221.53,542.56 C223.80,539.92 223.91,539.90 226.49,541.58 C228.26,542.74 228.73,543.55 227.94,544.04 C227.17,544.51 227.08,545.32 227.68,546.40 C228.22,547.35 228.26,551.44 227.77,556.27 C226.83,565.68 228.29,580.43 230.73,586.25 L 232.30 589.99 L 231.50 589.99 L 229.53 586.74 L 227.55 583.50 L 227.21 586.75 L 226.87 590.00 L 223.74 590.00 ZM 185.62 210.19 C187.14,212.65 191.05,208.56 191.55,204.00 C191.64,203.18 192.04,201.04 192.44,199.25 C192.89,197.22 192.77,196.00 192.13,196.00 C189.18,196.00 183.92,207.45 185.62,210.19 ZM 254.22 388.98 C248.49,392.08 246.99,392.55 247.01,391.25 C247.02,390.28 258.30,383.00 259.80,383.00 C262.38,383.00 259.44,386.15 254.22,388.98 ZM 240.96 191.45 C242.69,193.53 243.31,193.42 242.05,191.25 C240.27,188.19 238.55,186.40 236.75,185.72 C235.79,185.36 235.00,184.46 235.00,183.73 C235.00,182.80 233.95,182.52 231.49,182.81 C228.02,183.22 225.65,184.88 228.19,185.13 C228.91,185.20 230.47,185.36 231.65,185.49 C233.92,185.73 238.81,188.87 240.96,191.45 ZM 190.00 210.58 C190.00,212.38 192.64,211.80 193.94,209.73 C194.66,208.57 194.72,208.06 194.07,208.45 C192.43,209.47 192.79,208.08 194.85,205.46 C196.25,203.69 196.99,203.39 197.85,204.25 C198.72,205.12 199.00,205.10 199.00,204.20 C199.00,203.54 199.34,203.11 199.75,203.25 C200.16,203.39 200.50,203.06 200.50,202.52 C200.50,201.98 199.86,201.45 199.08,201.34 C197.54,201.11 190.00,208.79 190.00,210.58 ZM 180.63 226.89 C181.08,229.17 181.58,229.76 182.45,229.04 C183.97,227.78 182.99,219.83 181.25,219.25 C179.86,218.79 179.62,221.83 180.63,226.89 ZM 200.80 186.80 C202.65,184.95 202.23,184.00 199.56,184.00 C196.93,184.00 195.51,185.39 196.50,187.00 C197.34,188.35 199.34,188.26 200.80,186.80 ZM 266.00 427.12 C266.00,428.16 264.25,428.16 261.57,427.10 C260.50,426.68 260.08,426.07 260.64,425.72 C261.95,424.91 266.00,425.97 266.00,427.12 ZM 285.00 427.06 C285.00,428.26 281.30,428.30 280.56,427.10 C279.90,426.03 282.80,424.76 284.09,425.56 C284.59,425.87 285.00,426.54 285.00,427.06 ZM 231.00 289.05 C231.00,289.44 230.10,290.00 229.00,290.29 C226.71,290.89 226.37,289.77 228.34,288.13 C229.63,287.06 231.00,287.54 231.00,289.05 ZM 270.00 376.44 C270.00,377.23 269.55,378.16 269.00,378.50 C268.45,378.84 268.00,378.19 268.00,377.06 C268.00,375.93 268.45,375.00 269.00,375.00 C269.55,375.00 270.00,375.65 270.00,376.44 ZM 181.00 268.44 C181.00,269.30 180.55,270.00 180.00,270.00 C179.45,270.00 179.00,269.58 179.00,269.06 C179.00,268.54 179.45,267.84 180.00,267.50 C180.55,267.16 181.00,267.58 181.00,268.44 ZM 166.79 230.67 C166.44,226.09 166.79,221.57 167.95,221.18 C166.99,221.50 166.59,226.20 166.79,230.67 ZM 237.77 265.12 C238.35,264.46 238.99,263.74 239.70,262.96 L 241.09 261.44 C240.55,262.06 240.01,262.67 239.47,263.25 C238.85,263.92 238.29,264.54 237.77,265.12 ZM 169.74 216.14 C170.83,214.66 172.07,212.35 172.50,210.98 C172.55,210.82 172.63,210.60 172.72,210.34 C172.62,210.62 172.53,210.90 172.45,211.15 C172.05,212.42 170.83,214.66 169.74,216.14 ZM 177.51 199.58 C177.81,198.97 178.12,198.38 178.44,197.80 C178.13,198.38 177.82,198.97 177.51,199.58 ZM 235.88 276.48 C234.25,275.54 233.68,274.95 233.44,274.25 C233.30,273.87 233.27,273.45 233.20,272.93 C233.20,272.90 233.20,272.87 233.20,272.85 C233.20,272.86 233.20,272.88 233.20,272.89 C233.26,273.44 233.30,273.86 233.44,274.25 C233.69,274.96 234.26,275.54 235.88,276.48 Z" fill="rgba(0,0,0,1)"/>
<path d="M 292.81 387.28 L 291.14 390.78 L 296.01 388.99 C298.19,388.20 300.07,387.48 301.71,386.82 L 296.74 389.06 L 297.38 395.78 C297.73,399.48 298.29,405.24 298.62,408.59 C299.37,416.19 297.68,419.86 291.39,424.29 C287.11,427.31 286.93,427.63 287.54,431.23 C287.89,433.31 287.65,438.15 287.00,441.99 C285.83,448.93 285.84,448.98 289.05,454.73 C293.26,462.26 294.92,465.14 295.58,468.24 C296.03,470.39 296.00,472.65 296.00,476.66 C296.00,485.49 296.12,485.99 298.60,487.70 C305.21,492.27 308.81,496.17 309.42,499.40 C309.76,501.26 309.61,506.63 309.07,511.36 C308.07,520.19 308.13,520.79 311.99,541.50 C314.04,552.51 319.00,585.77 319.00,588.53 C319.00,589.06 317.98,589.40 314.13,589.62 L 313.56 587.26 C312.54,583.04 305.32,568.81 302.76,566.00 C301.50,564.62 299.66,562.22 298.66,560.67 C296.94,557.97 296.93,557.73 298.58,555.92 C299.53,554.86 301.33,554.00 302.58,554.00 C305.05,554.00 308.00,551.61 308.00,549.60 C308.00,548.91 306.88,547.29 305.50,546.00 C304.12,544.71 303.00,542.61 303.00,541.33 C303.00,538.65 292.77,518.34 289.12,513.78 C288.37,512.84 288.01,511.08 288.32,509.88 C288.69,508.47 287.58,505.04 285.22,500.25 C281.57,492.87 281.51,492.82 278.14,493.36 C273.93,494.05 274.61,493.31 281.74,489.50 C284.82,487.85 287.56,485.87 287.81,485.09 C288.11,484.16 287.76,483.88 286.78,484.26 C284.77,485.02 274.99,476.05 275.02,473.46 C275.05,470.64 278.10,467.21 280.92,466.83 C284.26,466.38 284.56,464.58 281.53,463.19 C277.55,461.38 278.57,460.20 283.61,460.77 C288.03,461.26 288.18,461.20 287.12,459.22 C285.93,456.99 277.50,453.42 270.99,452.38 C267.43,451.81 267.00,451.44 267.00,448.93 C267.00,445.80 265.38,444.22 263.79,445.81 C262.63,446.97 256.16,446.24 254.25,444.74 C253.56,444.20 253.00,442.46 253.00,440.88 C253.00,437.18 251.40,437.21 246.16,441.00 C243.88,442.65 241.74,444.00 241.41,444.00 C241.08,444.00 237.04,446.21 232.44,448.92 C227.84,451.63 222.39,454.44 220.31,455.17 C218.24,455.90 214.34,458.65 211.64,461.28 C206.97,465.83 206.64,465.98 204.87,464.38 C201.91,461.71 202.44,458.28 205.93,457.52 C207.54,457.16 209.40,456.23 210.05,455.44 C210.71,454.65 211.76,454.00 212.40,454.00 C215.86,454.00 235.88,442.73 238.75,439.17 C242.01,435.12 238.47,430.04 232.03,429.53 C230.40,429.41 228.42,428.76 227.63,428.10 C225.73,426.53 222.76,420.21 222.38,416.94 C222.11,414.65 222.38,414.40 224.79,414.76 C226.69,415.04 228.40,416.54 230.50,419.77 C233.69,424.67 234.77,425.43 236.73,424.19 C237.64,423.61 237.69,422.48 236.93,419.71 C236.37,417.67 235.59,415.99 235.20,415.98 C231.71,415.91 231.61,411.00 235.11,411.00 C238.10,411.00 237.33,409.25 233.12,406.46 C230.37,404.64 228.52,404.08 226.73,404.53 C223.39,405.37 222.17,403.27 224.89,401.36 C229.01,398.48 227.09,395.00 221.38,395.00 C219.27,395.00 219.07,395.27 219.96,396.93 C222.01,400.75 221.32,401.86 217.43,400.98 C215.46,400.54 213.06,399.46 212.08,398.57 C211.10,397.69 207.65,396.61 204.40,396.18 C200.10,395.61 198.59,395.02 198.82,393.99 C199.24,392.12 196.22,389.98 194.24,390.74 C193.20,391.14 192.92,390.94 193.39,390.17 C193.79,389.53 194.71,389.00 195.44,389.00 C196.17,389.00 197.53,387.83 198.47,386.41 C200.15,383.85 200.14,383.82 197.83,384.51 C196.55,384.89 194.57,385.79 193.43,386.51 C192.30,387.22 188.02,388.79 183.93,389.99 C175.75,392.40 171.62,394.58 172.52,396.03 C172.84,396.56 171.51,397.74 169.55,398.68 C167.60,399.61 166.00,400.81 166.00,401.36 C166.00,402.67 162.94,406.00 161.74,406.00 C161.21,406.00 161.07,404.88 161.41,403.50 C161.77,402.06 161.61,401.00 161.02,401.00 C160.46,401.00 160.00,399.94 160.00,398.64 C160.00,396.68 160.71,396.13 164.25,395.36 C168.00,394.55 168.48,394.13 168.33,391.83 C168.19,389.74 168.69,389.11 170.83,388.68 C172.45,388.36 174.26,386.86 175.42,384.88 C177.24,381.79 177.25,381.56 175.58,380.56 C170.64,377.58 170.46,377.14 174.67,378.26 C177.98,379.14 179.18,379.09 180.48,378.02 C183.71,375.34 184.01,373.49 181.63,370.93 L 179.38 368.50 L 183.69 368.50 C186.06,368.50 188.00,368.81 188.00,369.18 C188.00,369.56 188.91,370.15 190.02,370.51 C191.76,371.06 190.76,372.40 182.52,380.51 C177.28,385.66 173.00,390.13 173.00,390.44 C173.00,391.55 176.02,390.97 180.22,389.05 C184.42,387.14 193.59,383.62 209.50,377.83 C217.97,374.75 231.37,371.62 233.32,372.27 C233.96,372.49 232.72,374.28 230.56,376.25 C228.40,378.23 226.52,380.64 226.38,381.62 C226.24,382.59 227.56,385.02 229.31,387.01 C231.06,389.00 233.42,391.91 234.54,393.48 C236.57,396.30 236.60,396.31 239.32,394.53 C241.25,393.26 241.88,392.19 241.46,390.87 C241.13,389.84 241.23,388.98 241.68,388.95 C242.13,388.92 244.40,388.77 246.73,388.63 C249.66,388.45 252.11,387.45 254.73,385.36 C256.80,383.70 260.64,381.10 263.25,379.58 C267.06,377.36 268.00,376.28 268.00,374.10 C268.00,371.88 268.82,371.00 272.62,369.15 C275.16,367.92 277.47,367.14 277.75,367.41 C278.03,367.69 279.83,367.26 281.75,366.46 C285.67,364.82 290.60,364.54 291.44,365.90 C291.74,366.39 294.38,366.82 297.29,366.86 C300.21,366.89 306.57,367.61 311.43,368.46 C316.29,369.31 320.99,370.00 321.88,369.99 C322.61,369.99 322.40,369.58 321.61,368.96 C324.41,370.95 326.17,372.91 325.54,373.93 C325.16,374.56 322.17,374.96 318.54,374.88 C315.06,374.81 311.75,375.04 311.18,375.39 C310.72,375.68 310.48,376.86 310.55,378.24 C309.58,376.82 306.92,377.52 301.34,380.33 C296.07,382.98 294.08,384.60 292.81,387.28 ZM 271.61 295.10 C271.17,295.06 271.00,295.40 271.00,296.07 C271.00,296.66 270.29,296.44 269.43,295.57 C267.67,293.81 265.00,293.47 265.00,295.00 C265.00,296.85 263.33,296.02 262.24,293.62 C261.51,292.02 260.06,291.07 257.83,290.72 C256.00,290.44 253.53,289.90 252.35,289.51 C250.70,288.98 250.04,289.30 249.54,290.89 C248.73,293.43 241.02,297.00 236.34,297.00 C233.28,297.00 233.04,296.80 233.96,295.07 C235.33,292.52 235.29,289.00 233.89,289.00 C233.28,289.00 233.04,289.66 233.35,290.47 C234.49,293.44 232.04,297.74 228.85,298.38 C227.17,298.72 223.94,300.26 221.65,301.82 C219.37,303.38 215.76,305.85 213.63,307.31 C209.31,310.28 202.96,312.36 201.80,311.20 C200.72,310.12 204.86,305.94 210.77,302.15 C213.55,300.36 216.06,298.28 216.36,297.51 C216.66,296.73 218.38,295.35 220.20,294.44 C222.01,293.52 224.55,291.47 225.82,289.88 C227.10,288.30 228.92,287.00 229.86,287.00 C230.89,287.00 231.57,286.22 231.57,285.05 C231.57,283.97 231.37,283.29 231.13,283.53 C230.89,283.77 230.17,283.24 229.52,282.36 C228.08,280.39 222.75,280.22 222.15,282.12 C221.92,282.88 219.72,285.44 217.27,287.82 C213.07,291.89 212.71,292.05 210.99,290.49 C206.99,286.87 203.02,293.35 205.88,298.82 C206.87,300.70 205.61,305.00 204.08,305.00 C203.54,305.00 202.64,303.34 202.08,301.31 C201.52,299.29 199.88,296.47 198.45,295.06 C197.01,293.65 194.52,290.59 192.91,288.25 C191.30,285.91 189.57,284.00 189.06,284.00 C188.21,284.00 188.45,287.78 189.50,290.75 C190.37,293.23 188.93,295.04 186.94,293.97 C185.49,293.19 184.86,293.40 184.04,294.92 C183.47,296.00 182.10,296.81 181.00,296.72 C178.41,296.53 178.48,295.77 181.38,292.33 C182.69,290.77 184.68,287.86 185.81,285.85 L 187.86 282.19 L 184.41 278.17 C182.52,275.95 180.14,272.30 179.13,270.04 C178.04,267.60 177.42,266.57 176.62,267.08 C179.00,263.77 181.84,261.02 183.37,260.80 C185.17,260.55 185.64,259.52 186.39,254.25 C187.12,249.11 187.61,248.00 189.16,248.00 C190.46,248.00 191.24,247.06 191.65,244.98 C191.99,243.32 192.65,241.72 193.13,241.42 C194.32,240.69 194.23,234.73 192.98,231.46 L 191.97 228.78 L 195.26 230.73 C198.64,232.72 198.98,232.69 206.00,229.73 C208.96,228.48 210.55,228.43 214.26,229.46 C216.22,230.00 218.64,229.57 222.57,227.97 C229.93,224.98 247.64,224.45 249.09,227.18 C251.39,231.46 249.48,239.11 245.19,242.83 C243.65,244.16 243.21,244.94 244.16,244.65 C245.55,244.22 245.88,245.06 246.16,249.82 L 246.50 255.50 L 239.70 262.96 C234.52,268.65 232.98,271.01 233.20,272.93 C233.27,273.45 233.30,273.87 233.44,274.25 C234.00,275.86 236.25,276.87 249.09,282.81 C258.81,287.32 266.03,291.18 271.61,295.10 ZM 164.50 590.00 C190.82,590.00 197.00,589.75 197.00,588.67 C197.00,587.95 198.10,586.31 199.45,585.05 C200.79,583.78 202.18,581.45 202.53,579.87 C202.88,578.28 204.03,576.52 205.08,575.96 C206.14,575.39 207.00,574.27 207.00,573.46 C207.00,571.89 203.47,571.43 202.57,572.88 C202.27,573.37 200.78,573.98 199.26,574.24 C197.74,574.50 195.82,575.01 194.99,575.37 C194.00,575.80 193.15,575.26 192.49,573.77 C191.06,570.50 188.22,570.42 184.96,573.54 C183.25,575.18 181.50,576.02 180.56,575.66 C178.13,574.73 178.62,568.56 181.50,564.01 C185.22,558.11 194.24,549.34 198.37,547.62 C200.37,546.79 202.00,545.69 202.00,545.18 C202.00,544.10 197.19,543.00 192.50,543.00 C190.72,543.00 187.26,542.12 184.83,541.04 C180.86,539.29 175.39,538.52 169.39,538.87 C168.23,538.94 165.59,540.15 163.52,541.55 C159.57,544.23 157.84,544.07 159.63,541.20 C161.22,538.65 166.81,535.13 171.13,533.97 C178.52,531.98 214.94,533.54 217.35,535.95 C217.93,536.53 219.21,537.00 220.20,537.00 C221.19,537.00 222.01,537.34 222.01,537.75 C222.02,538.16 223.71,539.31 225.76,540.31 C233.32,543.96 232.90,542.67 233.39,564.09 C233.64,574.77 234.24,584.85 234.74,586.50 L 235.64 589.50 L 274.93 589.76 L 300.49 589.93 C294.36,589.98 286.27,590.00 275.65,590.00 L 232.30 590.00 L 230.73 586.25 C228.29,580.43 226.83,565.68 227.77,556.27 C228.26,551.44 228.22,547.35 227.68,546.40 C227.08,545.32 227.17,544.51 227.94,544.04 C228.73,543.55 228.26,542.74 226.49,541.58 C223.91,539.90 223.80,539.92 221.53,542.56 C219.39,545.05 219.32,545.52 220.57,548.50 C223.45,555.42 225.52,576.62 224.24,586.25 L 223.74 590.00 L 164.50 590.00 ZM 193.34 280.58 C199.96,283.66 200.74,283.61 202.80,280.01 C204.82,276.45 205.01,276.42 209.23,279.00 C213.78,281.78 217.00,281.65 217.00,278.70 C217.00,277.43 217.50,275.90 218.11,275.29 C219.59,273.81 218.21,271.71 216.26,272.45 C215.41,272.78 213.89,272.78 212.87,272.46 C211.13,271.91 211.12,271.68 212.59,268.82 C214.74,264.68 213.60,249.63 210.89,246.37 C209.28,244.43 210.39,243.60 212.85,244.92 C213.96,245.51 215.35,246.00 215.93,246.00 C217.47,246.00 217.25,243.03 215.67,242.43 C214.93,242.14 214.33,241.22 214.33,240.36 C214.33,239.07 215.23,238.92 219.67,239.48 C225.16,240.16 226.41,239.27 223.73,236.59 C221.25,234.10 218.40,233.25 210.38,232.57 C203.54,231.99 202.00,232.15 200.60,233.54 C199.20,234.95 198.70,234.99 197.31,233.85 C195.83,232.62 195.81,232.70 197.06,234.71 C198.27,236.66 198.17,237.48 196.19,241.55 C194.95,244.10 193.67,248.13 193.34,250.51 C192.92,253.63 192.36,254.69 191.37,254.31 C190.62,254.02 190.00,253.21 190.00,252.52 C190.00,251.82 189.37,250.72 188.60,250.08 C187.44,249.12 187.08,249.83 186.50,254.21 C186.12,257.12 184.95,261.47 183.90,263.88 C182.86,266.28 182.00,269.03 182.00,269.98 C182.00,272.65 187.65,277.93 193.34,280.58 ZM 274.26 361.00 C267.70,364.51 267.64,364.42 268.35,351.25 C268.70,344.79 269.23,333.20 269.54,325.50 C269.85,317.80 270.34,309.94 270.64,308.03 C271.74,300.90 273.30,308.15 273.79,322.73 C274.26,336.65 274.35,337.09 276.39,336.80 C277.92,336.58 278.58,335.68 278.78,333.50 C279.13,329.73 281.99,323.00 283.24,323.00 C283.76,323.00 283.91,324.66 283.57,326.75 C283.19,329.13 283.73,333.42 285.05,338.50 C287.55,348.11 289.07,357.08 288.38,358.19 C288.11,358.64 285.66,359.00 282.94,359.00 C279.90,359.00 276.55,359.77 274.26,361.00 ZM 183.84 514.85 C182.22,516.58 180.70,518.00 180.45,518.00 C179.43,518.00 180.10,516.16 181.56,514.95 C182.41,514.24 184.29,511.60 185.72,509.08 C187.15,506.56 189.44,503.29 190.80,501.80 C192.16,500.32 195.85,494.08 198.99,487.93 L 204.71 476.76 L 205.36 483.13 C206.97,498.85 207.30,501.07 208.13,501.58 C209.27,502.28 209.26,506.00 208.12,506.00 C207.64,506.00 206.68,505.33 206.00,504.50 C204.47,502.65 201.00,502.52 201.00,504.31 C201.00,505.03 201.66,506.49 202.47,507.56 C205.22,511.20 204.37,511.70 195.39,511.70 C187.03,511.70 186.70,511.79 183.84,514.85 ZM 93.24 423.62 C94.19,424.21 94.73,423.54 95.51,421.75 C96.28,419.99 97.47,419.43 100.90,419.19 C104.02,418.96 106.93,417.75 110.90,415.04 C117.59,410.47 133.04,394.82 135.38,390.25 C136.62,387.85 137.73,387.00 139.64,387.00 C141.80,387.00 142.14,387.36 141.67,389.15 C140.89,392.13 143.59,397.00 146.03,397.00 C148.57,397.00 148.56,399.44 146.00,402.00 C144.90,403.10 144.00,405.09 144.00,406.42 C144.00,407.58 143.61,410.24 143.10,412.70 C143.22,410.90 143.35,409.52 143.47,408.77 C144.24,404.10 142.40,392.00 140.92,392.00 C140.25,392.00 136.01,397.37 128.20,408.14 C123.38,414.77 119.75,417.20 108.68,421.21 C98.48,424.90 95.72,425.62 93.24,423.62 ZM 224.00 265.50 C229.09,267.33 229.56,267.26 230.84,264.45 C232.21,261.45 232.38,255.35 231.12,254.57 C229.73,253.72 229.17,249.12 230.40,248.61 C231.15,248.30 231.13,248.13 230.32,248.08 C228.57,247.96 225.88,251.00 226.64,252.23 C227.07,252.93 226.31,253.10 224.41,252.74 C222.82,252.43 220.72,252.61 219.75,253.13 C218.24,253.94 218.16,254.41 219.22,256.29 C219.90,257.51 220.47,259.79 220.48,261.37 C220.50,263.73 221.12,264.46 224.00,265.50 ZM 168.31 220.97 C168.60,220.68 168.65,220.24 168.39,219.82 C168.05,219.26 168.65,217.61 169.74,216.14 C170.83,214.66 172.05,212.42 172.45,211.15 C174.18,205.69 179.95,194.21 182.46,191.23 C185.59,187.51 187.97,187.13 189.79,190.04 C191.21,192.31 191.02,192.79 186.42,198.50 C184.74,200.58 182.06,204.65 180.29,207.81 C181.84,204.91 182.94,202.31 182.79,201.87 C181.85,199.06 172.00,213.32 172.00,217.48 C172.00,218.35 171.12,219.00 169.94,219.00 C168.81,219.00 168.16,219.45 168.50,220.00 C168.78,220.46 168.69,220.85 168.31,220.97 ZM 150.50 419.00 C149.60,420.45 148.51,420.23 146.81,418.25 C144.01,415.00 144.03,413.23 146.90,409.63 L 149.69 406.12 L 156.09 409.47 C159.62,411.32 162.50,413.41 162.50,414.13 C162.50,415.93 158.17,417.97 154.31,417.99 C152.55,417.99 150.84,418.45 150.50,419.00 ZM 167.89 237.75 C166.71,234.91 166.44,227.18 167.07,223.36 C167.18,224.23 167.53,225.13 168.12,225.72 C168.74,226.34 169.82,226.62 170.52,226.35 C171.22,226.08 172.10,226.35 172.46,226.93 C172.92,227.68 173.71,227.69 175.04,226.98 C176.61,226.14 176.94,224.90 176.87,220.08 C176.84,217.96 176.93,216.36 177.27,214.83 C176.88,216.83 176.86,219.26 176.92,223.55 C177.02,231.82 176.81,233.03 175.12,233.93 C174.07,234.50 172.74,236.32 172.16,237.98 C170.80,241.87 169.58,241.80 167.89,237.75 ZM 135.21 357.10 C135.50,363.21 135.45,363.33 132.38,364.61 C129.78,365.68 128.93,365.67 127.38,364.53 C125.56,363.20 125.57,363.09 127.75,360.77 C128.99,359.45 130.00,357.82 130.00,357.15 C130.00,356.48 130.67,355.68 131.48,355.37 C132.55,354.96 132.70,354.31 132.03,353.06 C131.52,352.10 131.12,350.46 131.14,349.41 C131.16,348.36 130.84,346.43 130.43,345.12 C129.87,343.31 130.03,342.84 131.10,343.19 C133.09,343.85 134.86,349.85 135.21,357.10 ZM 204.20 449.31 C203.08,450.51 201.72,453.08 201.17,455.00 C200.63,456.92 200.11,458.27 200.01,458.00 C199.67,456.97 199.24,454.36 198.70,450.00 C198.40,447.52 197.86,444.76 197.51,443.85 C196.64,441.64 198.15,440.88 201.91,441.63 C206.01,442.45 207.12,446.17 204.20,449.31 ZM 185.62 210.19 C183.92,207.45 189.18,196.00 192.13,196.00 C192.77,196.00 192.89,197.22 192.44,199.25 C192.04,201.04 191.64,203.18 191.55,204.00 C191.05,208.56 187.14,212.65 185.62,210.19 ZM 245.00 512.03 C243.62,512.96 240.70,514.02 238.50,514.38 L 234.50 515.04 L 237.50 512.52 C239.15,511.14 241.74,510.01 243.25,510.00 C244.76,510.00 246.00,509.55 246.00,509.00 C246.00,508.45 246.70,508.00 247.55,508.00 C249.18,508.00 258.49,503.12 263.31,499.75 C264.85,498.67 266.34,498.01 266.62,498.28 C267.29,498.96 262.96,501.90 254.50,506.52 C250.65,508.62 246.38,511.10 245.00,512.03 ZM 142.74 419.71 L 147.58 424.37 C150.81,427.46 153.77,430.00 154.17,430.00 C154.57,430.00 156.11,431.12 157.59,432.50 C161.25,435.89 159.47,435.62 154.10,431.98 C151.68,430.34 149.13,429.00 148.44,429.00 C147.75,429.00 146.00,427.60 144.56,425.89 L 142.61 423.57 C142.65,422.24 142.69,420.95 142.74,419.71 ZM 257.78 553.17 C255.05,554.91 244.00,552.23 244.00,549.82 C244.00,548.59 246.37,548.82 253.05,550.67 C256.97,551.76 258.62,552.63 257.78,553.17 ZM 254.22 388.98 C259.44,386.15 262.38,383.00 259.80,383.00 C258.30,383.00 247.02,390.28 247.01,391.25 C246.99,392.55 248.49,392.08 254.22,388.98 ZM 240.96 191.45 C238.81,188.87 233.92,185.73 231.65,185.49 C230.47,185.36 228.91,185.20 228.19,185.13 C225.65,184.88 228.02,183.22 231.49,182.81 C233.95,182.52 235.00,182.80 235.00,183.73 C235.00,184.46 235.79,185.36 236.75,185.72 C238.55,186.40 240.27,188.19 242.05,191.25 C243.31,193.42 242.69,193.53 240.96,191.45 ZM 190.00 210.58 C190.00,208.79 197.54,201.11 199.08,201.34 C199.86,201.45 200.50,201.98 200.50,202.52 C200.50,203.06 200.16,203.39 199.75,203.25 C199.34,203.11 199.00,203.54 199.00,204.20 C199.00,205.10 198.72,205.12 197.85,204.25 C196.99,203.39 196.25,203.69 194.85,205.46 C192.79,208.08 192.43,209.47 194.07,208.45 C194.72,208.06 194.66,208.57 193.94,209.73 C192.64,211.80 190.00,212.38 190.00,210.58 ZM 249.50 360.92 C249.50,364.56 248.41,365.54 246.04,364.04 C244.90,363.33 244.79,362.49 245.56,360.31 C246.98,356.26 249.50,356.65 249.50,360.92 ZM 180.63 226.89 C179.62,221.83 179.86,218.79 181.25,219.25 C182.99,219.83 183.97,227.78 182.45,229.04 C181.58,229.76 181.08,229.17 180.63,226.89 ZM 244.77 428.37 C245.18,430.17 245.28,430.17 247.23,428.22 C248.64,426.81 249.07,425.46 248.64,423.84 C247.78,420.60 246.24,418.42 245.41,419.25 C245.03,419.64 245.29,420.65 246.00,421.49 C247.04,422.76 247.01,423.35 245.81,424.77 C245.01,425.72 244.54,427.34 244.77,428.37 ZM 217.39 268.42 C216.92,269.65 217.47,270.00 219.90,270.00 C222.77,270.00 222.92,269.84 221.77,268.00 C220.70,266.29 218.00,265.16 218.00,266.42 C218.00,266.65 217.73,267.55 217.39,268.42 ZM 243.98 402.48 C245.58,404.40 248.12,404.48 247.39,402.58 C246.80,401.04 244.03,399.63 243.21,400.45 C242.94,400.73 243.28,401.64 243.98,402.48 ZM 266.00 427.12 C266.00,425.97 261.95,424.91 260.64,425.72 C260.08,426.07 260.50,426.68 261.57,427.10 C264.25,428.16 266.00,428.16 266.00,427.12 ZM 285.00 427.06 C285.00,426.54 284.59,425.87 284.09,425.56 C282.80,424.76 279.90,426.03 280.56,427.10 C281.30,428.30 285.00,428.26 285.00,427.06 ZM 231.00 289.05 C231.00,287.54 229.63,287.06 228.34,288.13 C226.37,289.77 226.71,290.89 229.00,290.29 C230.10,290.00 231.00,289.44 231.00,289.05 ZM 160.91 386.75 C160.17,387.71 159.44,388.69 159.28,388.92 C159.13,389.15 159.00,388.36 159.00,387.17 C159.00,385.83 159.63,385.00 160.62,385.00 C162.01,385.00 162.05,385.25 160.91,386.75 ZM 270.00 376.44 C270.00,375.65 269.55,375.00 269.00,375.00 C268.45,375.00 268.00,375.93 268.00,377.06 C268.00,378.19 268.45,378.84 269.00,378.50 C269.55,378.16 270.00,377.23 270.00,376.44 ZM 181.00 268.44 C181.00,267.58 180.55,267.16 180.00,267.50 C179.45,267.84 179.00,268.54 179.00,269.06 C179.00,269.58 179.45,270.00 180.00,270.00 C180.55,270.00 181.00,269.30 181.00,268.44 ZM 202.00 313.00 C202.00,313.55 201.55,314.00 201.00,314.00 C200.45,314.00 200.00,313.55 200.00,313.00 C200.00,312.45 200.45,312.00 201.00,312.00 C201.55,312.00 202.00,312.45 202.00,313.00 ZM 166.00 376.00 C166.00,376.55 165.55,377.00 165.00,377.00 C164.45,377.00 164.00,376.55 164.00,376.00 C164.00,375.45 164.45,375.00 165.00,375.00 C165.55,375.00 166.00,375.45 166.00,376.00 ZM 204.00 461.94 C204.00,462.52 204.45,463.00 205.00,463.00 C205.55,463.00 206.00,462.80 206.00,462.56 C206.00,462.32 205.55,461.84 205.00,461.50 C204.45,461.16 204.00,461.36 204.00,461.94 ZM 142.25 445.39 L 142.29 448.50 L 137.49 463.00 C135.04,470.38 133.45,476.09 132.65,480.82 C133.44,476.09 135.02,470.37 137.44,463.00 L 142.21 448.50 L 142.25 445.39 ZM 289.79 318.20 C286.07,309.73 282.82,305.00 278.46,300.75 C278.02,300.32 277.60,299.92 277.21,299.54 C282.11,303.99 285.46,308.83 288.38,315.00 C288.78,315.83 289.26,316.92 289.79,318.20 ZM 310.84 381.15 C310.76,382.36 309.96,383.02 307.19,384.33 C309.34,383.17 310.46,382.17 310.84,381.15 ZM 319.84 367.79 C317.13,366.17 312.80,364.14 310.00,363.43 L 305.50 362.29 L 310.05 363.44 C313.25,364.25 316.88,365.95 319.84,367.79 ZM 89.85 392.35 C87.32,399.42 86.61,402.04 86.03,405.50 C85.92,406.17 85.84,406.82 85.79,407.45 C85.83,406.81 85.91,406.16 86.02,405.50 C86.61,402.04 87.32,399.41 89.85,392.35 ZM 88.16 417.14 C88.82,418.26 89.62,419.44 90.58,420.70 C90.66,420.80 90.73,420.89 90.80,420.99 C89.75,419.67 88.87,418.40 88.16,417.14 Z" fill="rgba(141,108,86,1)"/>
<path d="M 183.84 514.85 C186.70,511.79 187.03,511.70 195.39,511.70 C204.37,511.70 205.22,511.20 202.47,507.56 C201.66,506.49 201.00,505.03 201.00,504.31 C201.00,502.52 204.47,502.65 206.00,504.50 C206.68,505.33 207.64,506.00 208.12,506.00 C209.26,506.00 209.27,502.28 208.13,501.58 C207.30,501.07 206.97,498.85 205.36,483.13 L 204.71 476.76 L 198.99 487.93 C198.90,488.11 198.81,488.29 198.71,488.47 C199.50,486.73 200.00,485.33 200.00,484.67 C200.00,483.91 198.87,482.07 197.48,480.58 C196.10,479.08 195.23,477.44 195.54,476.93 C196.52,475.35 197.50,475.88 199.35,479.02 C200.33,480.68 201.55,481.78 202.07,481.46 C203.28,480.71 203.28,475.00 202.07,475.00 C201.55,475.00 200.85,474.09 200.50,472.99 C200.14,471.88 199.44,471.23 198.93,471.54 C198.42,471.86 198.00,471.61 198.00,471.00 C198.00,470.39 197.57,470.15 197.04,470.47 C196.52,470.80 196.32,471.66 196.60,472.39 C196.88,473.12 196.03,475.02 194.72,476.61 C193.41,478.20 191.99,480.40 191.55,481.50 C190.93,483.09 190.66,483.19 190.23,482.00 C189.94,481.17 189.38,480.27 188.98,480.00 C188.59,479.73 187.98,478.57 187.62,477.43 C187.10,475.74 188.04,474.57 192.66,471.14 C196.36,468.40 198.58,467.32 199.03,468.05 C199.46,468.74 199.93,468.37 200.27,467.08 C200.63,465.71 201.34,465.19 202.35,465.58 C203.68,466.09 203.73,465.75 202.74,463.11 C201.75,460.50 201.90,459.38 203.79,455.50 C205.01,452.99 206.00,450.21 206.00,449.32 C206.00,447.92 205.79,447.90 204.15,449.37 C204.17,449.35 204.18,449.33 204.20,449.31 C207.12,446.17 206.01,442.45 201.91,441.63 C198.15,440.88 196.64,441.64 197.51,443.85 C197.86,444.76 198.40,447.52 198.70,450.00 C199.24,454.36 199.67,456.97 200.01,458.00 C200.11,458.27 200.63,456.92 201.17,455.00 C201.45,454.03 201.93,452.91 202.48,451.87 C202.17,452.68 201.99,453.57 201.98,454.40 C201.96,459.34 200.87,460.33 197.42,458.54 C195.49,457.53 195.09,457.01 196.25,457.01 C198.44,457.00 198.61,452.69 196.58,448.80 C195.72,447.15 195.38,444.59 195.70,442.17 L 196.23 438.22 L 188.37 434.42 C184.04,432.33 179.70,429.94 178.72,429.13 C177.74,428.31 175.16,427.66 172.99,427.69 C169.00,427.75 166.29,425.96 167.47,424.04 C167.83,423.47 168.99,423.00 170.06,423.00 C171.92,423.00 176.59,419.26 175.77,418.43 C175.54,418.21 172.13,419.64 168.18,421.61 C162.34,424.53 161.00,425.63 161.00,427.53 C161.00,431.50 162.85,434.99 165.48,436.02 C166.87,436.56 169.15,437.45 170.56,438.00 C171.97,438.55 172.83,439.47 172.47,440.05 C172.03,440.76 171.11,440.65 169.66,439.71 C168.47,438.93 165.72,437.97 163.55,437.57 C161.37,437.16 157.32,435.59 154.55,434.06 C151.77,432.54 147.83,431.03 145.78,430.71 L 142.07 430.14 L 142.18 439.32 C142.19,439.98 142.19,440.60 142.19,441.19 L 142.12 435.64 L 141.95 422.79 L 144.56 425.89 C146.00,427.60 147.75,429.00 148.44,429.00 C149.13,429.00 151.68,430.34 154.10,431.98 C159.47,435.62 161.25,435.89 157.59,432.50 C156.11,431.12 154.57,430.00 154.17,430.00 C153.77,430.00 150.81,427.46 147.58,424.37 L 141.72 418.73 L 142.86 413.79 C143.49,411.07 144.00,407.76 144.00,406.42 C144.00,406.38 144.00,406.33 144.00,406.29 C144.00,406.36 144.00,406.43 144.00,406.50 C144.00,407.99 144.43,408.85 145.00,408.50 C145.55,408.16 146.00,407.26 146.00,406.50 C146.00,405.74 145.55,404.84 145.00,404.50 C144.75,404.35 144.53,404.42 144.36,404.68 C144.72,403.69 145.32,402.68 146.00,402.00 C148.56,399.44 148.57,397.00 146.03,397.00 C143.59,397.00 140.89,392.13 141.67,389.15 C142.14,387.36 141.80,387.00 139.64,387.00 C137.73,387.00 136.62,387.85 135.38,390.25 C133.04,394.82 117.59,410.47 110.90,415.04 C106.93,417.75 104.02,418.96 100.90,419.19 C97.47,419.43 96.28,419.99 95.51,421.75 C94.20,424.74 93.56,424.60 90.58,420.70 C88.59,418.09 87.27,415.83 86.52,413.61 C87.07,414.50 87.87,414.98 88.65,414.82 C90.13,414.53 90.95,413.44 93.00,409.03 C93.37,408.23 96.11,406.84 99.09,405.95 C102.06,405.06 106.53,403.27 109.00,401.99 C111.47,400.70 115.05,399.39 116.95,399.07 C119.57,398.62 121.37,397.25 124.45,393.34 C127.20,389.86 130.05,387.54 133.33,386.13 L 138.16 384.05 L 142.83 386.44 C145.40,387.76 149.47,390.69 151.88,392.96 C154.29,395.23 156.76,396.91 157.38,396.71 C157.99,396.50 158.94,395.09 159.48,393.57 C160.35,391.12 160.09,390.47 157.23,387.91 C153.32,384.42 153.25,384.00 156.63,384.00 C159.57,384.00 163.00,380.68 163.00,377.85 C163.00,376.83 162.41,376.00 161.68,376.00 C160.95,376.00 159.45,374.99 158.33,373.75 C157.22,372.51 155.54,371.05 154.61,370.50 C153.12,369.62 153.43,368.92 157.28,364.56 L 161.65 359.61 L 164.73 361.81 C166.42,363.01 168.30,364.00 168.90,364.00 C169.51,364.00 170.00,364.48 170.00,365.06 C170.00,365.64 170.47,365.83 171.04,365.47 C171.62,365.12 172.72,365.35 173.50,366.00 C174.27,366.64 175.83,366.87 176.95,366.52 C178.49,366.03 179.00,365.01 179.00,362.47 C179.00,358.30 177.62,357.49 169.04,356.63 C162.07,355.94 160.05,354.88 161.71,352.79 C164.94,348.72 166.38,310.42 163.46,306.24 C161.94,304.08 162.51,302.14 166.75,295.08 C167.71,293.49 168.63,297.81 169.60,308.32 L 170.71 320.50 L 170.85 310.75 C170.93,305.39 171.41,301.00 171.92,301.00 C172.43,301.00 173.12,304.04 173.46,307.75 C173.80,311.46 174.51,318.10 175.03,322.50 C175.77,328.82 175.67,331.34 174.53,334.50 C173.74,336.70 173.07,339.56 173.04,340.85 C172.99,343.72 169.22,349.24 167.66,348.72 C167.03,348.51 165.88,348.98 165.10,349.76 C163.13,351.72 165.20,352.96 170.50,353.00 C172.70,353.01 175.41,353.27 176.53,353.57 C178.74,354.17 180.12,351.71 183.48,341.25 C184.40,338.36 185.57,336.00 186.08,336.00 C186.59,336.00 187.00,335.38 187.00,334.62 C187.00,333.86 188.00,332.58 189.22,331.77 C190.78,330.73 191.39,329.43 191.24,327.40 C191.13,325.80 191.45,323.85 191.95,323.05 C192.70,321.86 193.22,322.03 194.90,324.05 C196.83,326.38 196.81,326.10 194.51,318.54 C193.18,314.16 192.33,310.34 192.63,310.04 C193.38,309.29 197.00,313.91 197.00,315.61 C197.00,316.37 197.45,317.00 198.00,317.00 C199.72,317.00 199.10,313.49 196.53,308.65 C195.17,306.09 194.24,304.00 194.45,304.00 C194.67,304.00 193.24,302.20 191.26,300.00 C185.99,294.13 183.49,294.90 186.04,301.61 C186.61,303.11 186.80,305.05 186.46,305.92 C186.01,307.06 185.16,306.18 183.40,302.75 C182.06,300.14 180.30,298.00 179.48,298.00 C177.17,298.00 177.73,295.88 180.91,292.55 C182.02,291.38 183.44,289.56 184.57,287.89 C183.52,289.52 182.28,291.25 181.38,292.33 C178.48,295.77 178.41,296.53 181.00,296.72 C182.10,296.81 183.47,296.00 184.04,294.92 C184.86,293.40 185.49,293.19 186.94,293.97 C188.93,295.04 190.37,293.23 189.50,290.75 C188.45,287.78 188.21,284.00 189.06,284.00 C189.57,284.00 191.30,285.91 192.91,288.25 C193.96,289.77 195.38,291.61 196.65,293.09 C195.32,291.66 193.75,289.92 192.52,288.50 C189.11,284.56 189.07,284.55 189.95,287.50 C193.20,298.39 195.27,302.41 197.82,302.81 C198.91,302.97 200.59,303.99 201.56,305.06 C203.23,306.92 203.46,306.93 205.91,305.34 C207.11,304.56 208.17,303.88 209.10,303.26 C204.10,306.72 200.82,310.22 201.80,311.20 C202.96,312.36 209.31,310.28 213.63,307.31 C215.76,305.85 219.37,303.38 221.65,301.82 C223.94,300.26 227.17,298.72 228.85,298.38 C232.04,297.74 234.49,293.44 233.35,290.47 C233.04,289.66 233.28,289.00 233.89,289.00 C235.29,289.00 235.33,292.52 233.96,295.07 C233.04,296.80 233.28,297.00 236.34,297.00 C241.02,297.00 248.73,293.43 249.54,290.89 C250.04,289.30 250.70,288.98 252.35,289.51 C253.53,289.90 256.00,290.44 257.83,290.72 C260.06,291.07 261.51,292.02 262.24,293.62 C263.33,296.02 265.00,296.85 265.00,295.00 C265.00,293.47 267.67,293.81 269.43,295.57 C270.29,296.44 271.00,296.66 271.00,296.07 C271.00,294.03 272.59,295.03 278.46,300.75 C285.90,308.01 290.11,316.67 298.96,342.89 L 305.50 362.29 L 310.00 363.43 C313.58,364.34 319.65,367.40 321.66,369.00 L 318.27 366.98 C309.63,361.82 281.70,358.30 273.97,361.39 C273.28,361.67 272.64,361.93 272.07,362.14 C272.71,361.83 273.43,361.44 274.26,361.00 C276.55,359.77 279.90,359.00 282.94,359.00 C285.66,359.00 288.11,358.64 288.38,358.19 C289.07,357.08 287.55,348.11 285.05,338.50 C283.73,333.42 283.19,329.13 283.57,326.75 C283.91,324.66 283.76,323.00 283.24,323.00 C281.99,323.00 279.13,329.73 278.78,333.50 C278.58,335.68 277.92,336.58 276.39,336.80 C274.35,337.09 274.26,336.65 273.79,322.73 C273.30,308.15 271.74,300.90 270.64,308.03 C270.34,309.94 269.85,317.80 269.54,325.50 C269.23,333.20 268.70,344.79 268.35,351.25 C267.94,358.84 267.79,362.09 268.99,362.80 C268.80,362.78 268.63,362.73 268.46,362.65 C266.59,361.78 266.29,357.52 265.40,346.00 C265.09,341.88 264.18,337.60 263.38,336.50 C262.58,335.40 260.52,332.36 258.81,329.75 C256.02,325.49 253.00,323.49 253.00,325.91 C253.00,326.41 254.63,330.31 256.63,334.58 C259.64,341.00 260.30,343.59 260.48,349.68 C260.60,353.72 260.99,357.32 261.35,357.68 C261.71,358.04 262.00,359.61 262.00,361.17 C262.00,362.73 262.45,364.00 263.00,364.00 C265.24,364.00 263.75,365.75 259.79,367.76 L 255.57 369.90 L 252.04 367.76 C247.57,365.05 246.60,364.59 240.55,362.28 L 235.61 360.39 L 233.91 351.61 C232.11,342.27 230.00,338.06 230.00,343.80 C230.00,345.56 229.62,347.00 229.15,347.00 C228.68,347.00 228.52,343.58 228.79,339.39 C229.16,333.58 228.95,331.58 227.89,330.91 C225.57,329.44 224.75,329.89 225.36,332.30 C226.06,335.08 224.65,341.15 223.81,338.96 C223.19,337.34 225.43,320.73 226.51,318.99 C226.97,318.23 227.97,318.41 229.74,319.56 C232.08,321.10 232.36,321.10 233.19,319.62 C234.21,317.80 236.00,317.44 236.00,319.06 C236.00,319.64 235.61,319.87 235.12,319.58 C234.64,319.28 234.25,320.15 234.25,321.52 C234.25,322.88 234.64,324.00 235.12,324.00 C235.61,324.00 236.00,324.56 236.01,325.25 C236.01,325.94 236.69,327.80 237.52,329.38 C238.58,331.43 238.87,334.06 238.51,338.45 C238.14,342.96 238.40,345.14 239.47,346.56 C240.88,348.42 240.94,348.40 240.97,345.88 C240.99,344.45 241.85,342.19 242.89,340.87 C245.57,337.45 248.00,331.26 248.00,327.81 C248.00,326.19 248.46,324.00 249.03,322.94 C250.31,320.55 248.46,316.73 244.02,312.63 C242.06,310.80 241.02,308.97 241.21,307.63 C241.57,304.99 238.81,305.18 234.79,308.06 C233.30,309.13 231.46,310.00 230.71,310.00 C229.95,310.00 229.04,310.30 228.67,310.66 C228.31,311.03 226.63,311.48 224.94,311.66 C221.65,312.02 215.51,316.17 213.95,319.09 C213.31,320.30 213.40,321.29 214.25,322.20 C216.73,324.86 221.06,334.34 220.19,335.21 C219.18,336.22 213.39,329.49 210.10,323.50 L 207.91 319.50 L 208.38 327.25 C208.64,331.66 208.45,335.00 207.92,335.00 C207.42,335.00 207.00,331.34 207.00,326.88 C207.00,319.82 206.81,318.92 205.52,319.98 C204.71,320.66 204.08,322.18 204.12,323.36 C204.17,324.54 203.94,328.48 203.62,332.13 C203.08,338.30 203.24,339.05 206.00,343.13 C209.30,348.00 209.74,350.00 207.50,350.00 C206.68,350.00 206.00,349.66 206.00,349.25 C206.00,348.84 204.08,348.50 201.74,348.50 C197.90,348.50 196.89,349.08 191.19,354.58 C184.03,361.50 184.11,361.95 192.96,364.58 L 198.19 366.13 L 192.99 370.82 C186.33,376.82 180.36,382.70 176.22,387.33 C174.16,389.64 173.58,390.84 174.56,390.96 C173.57,391.08 173.00,390.92 173.00,390.44 C173.00,390.13 177.28,385.66 182.52,380.51 C190.76,372.40 191.76,371.06 190.02,370.51 C188.91,370.15 188.00,369.56 188.00,369.18 C188.00,368.81 186.06,368.50 183.69,368.50 L 179.38 368.50 L 181.63 370.93 C184.01,373.49 183.71,375.34 180.48,378.02 C179.18,379.09 177.98,379.14 174.67,378.26 C170.46,377.14 170.64,377.58 175.58,380.56 C177.25,381.56 177.24,381.79 175.42,384.88 C174.26,386.86 172.45,388.36 170.83,388.68 C168.69,389.11 168.19,389.74 168.33,391.83 C168.48,394.13 168.00,394.55 164.25,395.36 C160.71,396.13 160.00,396.68 160.00,398.64 C160.00,399.94 160.46,401.00 161.02,401.00 C161.61,401.00 161.77,402.06 161.41,403.50 C161.07,404.88 161.21,406.00 161.74,406.00 C162.94,406.00 166.00,402.67 166.00,401.36 C166.00,400.81 167.60,399.61 169.55,398.68 C171.51,397.74 172.84,396.56 172.52,396.03 C171.62,394.58 175.75,392.40 183.93,389.99 C188.02,388.79 192.30,387.22 193.43,386.51 C194.57,385.79 196.55,384.89 197.83,384.51 C200.14,383.82 200.15,383.85 198.47,386.41 C197.53,387.83 196.17,389.00 195.44,389.00 C194.71,389.00 193.79,389.53 193.39,390.17 C192.92,390.94 193.20,391.14 194.24,390.74 C196.22,389.98 199.24,392.12 198.82,393.99 C198.59,395.02 200.10,395.61 204.40,396.18 C207.65,396.61 211.10,397.69 212.08,398.57 C213.06,399.46 215.46,400.54 217.43,400.98 C221.32,401.86 222.01,400.75 219.96,396.93 C219.07,395.27 219.27,395.00 221.38,395.00 C227.09,395.00 229.01,398.48 224.89,401.36 C222.17,403.27 223.39,405.37 226.73,404.53 C228.52,404.08 230.37,404.64 233.12,406.46 C237.33,409.25 238.10,411.00 235.11,411.00 C231.61,411.00 231.71,415.91 235.20,415.98 C235.59,415.99 236.37,417.67 236.93,419.71 C237.69,422.48 237.64,423.61 236.73,424.19 C234.77,425.43 233.69,424.67 230.50,419.77 C228.40,416.54 226.69,415.04 224.79,414.76 C222.38,414.40 222.11,414.65 222.38,416.94 C222.76,420.21 225.73,426.53 227.63,428.10 C228.42,428.76 230.40,429.41 232.03,429.53 C238.47,430.04 242.01,435.12 238.75,439.17 C235.88,442.73 215.86,454.00 212.40,454.00 C211.76,454.00 210.71,454.65 210.05,455.44 C209.40,456.23 207.54,457.16 205.93,457.52 C202.44,458.28 201.91,461.71 204.87,464.38 C206.64,465.98 206.97,465.83 211.64,461.28 C214.34,458.65 218.24,455.90 220.31,455.17 C222.39,454.44 227.84,451.63 232.44,448.92 C237.04,446.21 241.08,444.00 241.41,444.00 C241.74,444.00 243.88,442.65 246.16,441.00 C251.40,437.21 253.00,437.18 253.00,440.88 C253.00,442.46 253.56,444.20 254.25,444.74 C256.16,446.24 262.63,446.97 263.79,445.81 C265.38,444.22 267.00,445.80 267.00,448.93 C267.00,451.44 267.43,451.81 270.99,452.38 C277.50,453.42 285.93,456.99 287.12,459.22 C288.18,461.20 288.03,461.26 283.61,460.77 C278.57,460.20 277.55,461.38 281.53,463.19 C284.56,464.58 284.26,466.38 280.92,466.83 C278.10,467.21 275.05,470.64 275.02,473.46 C274.99,476.05 284.77,485.02 286.78,484.26 C287.76,483.88 288.11,484.16 287.81,485.09 C287.56,485.87 284.82,487.85 281.74,489.50 C274.61,493.31 273.93,494.05 278.14,493.36 C281.51,492.82 281.57,492.87 285.22,500.25 C287.58,505.04 288.69,508.47 288.32,509.88 C288.01,511.08 288.37,512.84 289.12,513.78 C292.77,518.34 303.00,538.65 303.00,541.33 C303.00,542.61 304.12,544.71 305.50,546.00 C306.88,547.29 308.00,548.91 308.00,549.60 C308.00,551.61 305.05,554.00 302.58,554.00 C301.33,554.00 299.53,554.86 298.58,555.92 C296.93,557.73 296.94,557.97 298.66,560.67 C299.66,562.22 301.50,564.62 302.76,566.00 C305.32,568.81 312.54,583.04 313.56,587.26 L 314.22 590.02 L 310.70 590.00 L 312.79 590.00 L 312.05 586.73 C310.11,578.11 298.99,561.15 292.15,556.39 C290.86,555.48 285.23,553.21 279.65,551.34 C267.88,547.39 261.00,544.24 261.00,542.82 C261.00,540.74 272.97,543.55 279.79,547.23 C282.75,548.83 283.37,548.86 285.92,547.54 C289.66,545.61 290.29,543.64 288.07,540.81 C287.04,539.50 285.94,535.81 285.53,532.24 C284.89,526.75 284.51,525.91 282.39,525.38 C281.06,525.05 279.42,525.22 278.74,525.76 C278.06,526.30 274.12,527.06 270.00,527.45 C265.88,527.84 261.83,528.74 261.00,529.45 C260.17,530.16 257.08,531.05 254.13,531.42 C251.17,531.80 248.10,532.75 247.31,533.55 C246.51,534.35 244.33,535.00 242.46,535.00 C240.09,535.00 238.75,535.60 238.00,537.00 C236.26,540.26 230.76,539.69 227.59,535.92 C226.17,534.23 225.00,532.52 225.00,532.13 C225.00,531.73 226.80,529.71 229.00,527.62 C231.20,525.54 233.00,522.89 233.00,521.75 C233.00,520.60 232.70,519.96 232.34,520.33 C231.97,520.69 230.20,519.87 228.40,518.50 C224.94,515.86 219.00,515.07 219.00,517.26 C219.00,517.95 219.47,520.09 220.05,522.01 C220.62,523.93 221.27,527.65 221.49,530.29 C222.05,537.00 222.50,538.13 226.81,540.81 C226.48,540.65 226.13,540.49 225.76,540.31 C223.71,539.31 222.02,538.16 222.01,537.75 C222.01,537.34 221.19,537.00 220.20,537.00 C219.21,537.00 217.93,536.53 217.35,535.95 C214.94,533.54 178.52,531.98 171.13,533.97 C166.81,535.13 161.22,538.65 159.63,541.20 C157.84,544.07 159.57,544.23 163.52,541.55 C165.59,540.15 168.23,538.94 169.39,538.87 C175.39,538.52 180.86,539.29 184.83,541.04 C187.26,542.12 190.72,543.00 192.50,543.00 C197.19,543.00 202.00,544.10 202.00,545.18 C202.00,545.69 200.37,546.79 198.37,547.62 C194.24,549.34 185.22,558.11 181.50,564.01 C178.62,568.56 178.13,574.73 180.56,575.66 C181.50,576.02 183.25,575.18 184.96,573.54 C188.22,570.42 191.06,570.50 192.49,573.77 C193.15,575.26 194.00,575.80 194.99,575.37 C195.82,575.01 197.74,574.50 199.26,574.24 C200.78,573.98 202.27,573.37 202.57,572.88 C203.47,571.43 207.00,571.89 207.00,573.46 C207.00,574.27 206.14,575.39 205.08,575.96 C204.03,576.52 202.88,578.28 202.53,579.87 C202.18,581.45 200.79,583.78 199.45,585.05 C198.10,586.31 197.00,587.95 197.00,588.67 C197.00,589.66 191.82,589.95 170.71,589.99 L 170.48 585.44 C170.06,577.26 176.84,564.30 187.19,553.51 C192.46,548.01 193.42,545.42 189.75,546.56 C188.51,546.95 186.31,548.10 184.85,549.13 C183.39,550.16 181.79,551.00 181.30,551.00 C180.80,551.00 179.84,551.56 179.15,552.25 C177.29,554.11 169.00,553.91 169.02,552.00 C169.04,549.97 170.15,548.48 172.23,547.72 C174.88,546.74 173.00,542.73 169.68,542.29 C166.13,541.82 161.69,544.24 158.29,548.51 C152.62,555.61 150.70,550.17 156.29,542.84 C160.13,537.80 167.98,533.46 175.90,532.00 C178.87,531.44 181.80,530.59 182.40,530.09 C183.01,529.59 185.65,528.87 188.29,528.47 C193.52,527.69 197.74,525.00 196.60,523.16 C195.72,521.74 189.08,521.64 185.50,523.00 C181.37,524.57 175.42,523.21 174.14,520.40 C173.54,519.09 173.31,517.34 173.63,516.51 C174.31,514.74 174.56,514.69 176.90,515.95 C178.55,516.83 181.72,514.72 184.32,511.38 C183.23,513.04 182.15,514.46 181.56,514.95 C180.10,516.16 179.43,518.00 180.45,518.00 C180.70,518.00 182.22,516.58 183.84,514.85 ZM 245.00 512.03 C246.38,511.10 250.65,508.62 254.50,506.52 C262.96,501.90 267.29,498.96 266.62,498.28 C266.34,498.01 264.85,498.67 263.31,499.75 C260.12,501.98 254.96,504.88 251.36,506.58 C251.92,506.25 252.48,505.88 253.00,505.50 C254.86,504.12 256.91,503.00 257.54,503.00 C258.18,503.00 260.56,501.65 262.84,500.00 C265.12,498.35 267.44,497.00 267.99,497.00 C268.55,497.00 269.00,496.65 269.00,496.23 C269.00,495.80 270.58,494.61 272.50,493.57 C275.75,491.82 277.29,489.00 275.00,489.00 C274.45,489.00 274.00,489.35 274.00,489.78 C274.00,490.21 272.87,490.66 271.49,490.77 C269.81,490.91 267.75,489.82 265.26,487.47 C262.00,484.39 261.69,483.72 262.77,481.99 C264.31,479.53 264.28,478.96 262.48,476.58 C261.13,474.79 260.91,474.77 259.21,476.31 C257.91,477.49 257.45,479.18 257.60,482.23 C257.87,487.80 257.71,487.31 259.97,489.74 C261.06,490.91 262.20,493.30 262.51,495.05 C262.97,497.68 262.79,498.13 261.48,497.63 C260.60,497.29 258.37,497.66 256.50,498.43 C253.58,499.65 253.20,499.65 253.67,498.42 C253.97,497.64 254.62,497.00 255.11,497.00 C256.55,497.00 256.13,494.14 254.26,491.21 C251.42,486.77 250.53,486.13 248.68,487.16 C245.51,488.93 246.86,485.40 251.52,479.74 C254.00,476.72 255.80,473.64 255.50,472.88 C255.21,472.12 253.55,471.40 251.80,471.28 C250.05,471.15 243.74,469.46 237.77,467.51 C229.62,464.86 226.45,464.22 225.05,464.97 C224.02,465.52 219.99,466.09 216.09,466.24 C210.11,466.46 209.00,466.77 209.00,468.25 C209.00,469.21 208.55,470.00 208.00,470.00 C207.45,470.00 207.00,469.52 207.00,468.94 C207.00,468.36 206.59,468.14 206.09,468.45 C205.58,468.76 205.00,468.51 204.80,467.90 C204.56,467.19 203.93,467.37 203.09,468.39 C201.96,469.76 202.00,470.00 203.38,470.00 C204.27,470.00 205.00,470.70 205.00,471.56 C205.00,472.42 205.45,472.84 205.99,472.51 C206.62,472.11 206.78,473.98 206.42,477.70 C206.03,481.70 206.36,485.05 207.49,488.50 C208.39,491.25 209.76,496.38 210.54,499.91 C211.96,506.32 214.50,510.00 217.49,510.00 C218.35,510.00 219.32,509.33 219.64,508.50 C219.95,507.67 220.68,507.00 221.25,507.00 C221.81,507.00 222.80,506.29 223.44,505.42 C224.42,504.07 225.01,504.61 227.40,508.99 C228.94,511.82 230.83,514.38 231.60,514.68 C232.37,514.97 233.00,515.79 233.00,516.49 C233.00,517.18 234.01,518.43 235.25,519.26 C236.49,520.09 238.40,520.55 239.50,520.27 C240.60,520.00 243.21,519.70 245.30,519.61 C247.41,519.52 249.51,518.79 250.02,517.97 C250.76,516.79 250.10,516.37 246.72,515.82 C244.40,515.45 240.70,515.10 238.50,515.04 L 235.08 514.94 L 238.50 514.38 C240.70,514.02 243.62,512.96 245.00,512.03 ZM 193.34 280.58 C187.65,277.93 182.00,272.65 182.00,269.98 C182.00,269.70 182.07,269.27 182.20,268.75 C182.19,268.94 182.21,269.13 182.24,269.31 C182.42,270.44 183.33,271.45 185.10,273.47 C186.81,275.41 188.50,276.99 188.85,276.97 C190.62,276.88 192.94,274.03 193.75,270.95 C194.56,267.85 194.98,267.53 197.74,267.80 C201.41,268.16 201.59,267.73 202.51,256.50 C202.87,252.10 203.72,247.45 204.41,246.17 L 205.65 243.85 L 208.07 246.41 C211.78,250.31 212.63,249.49 209.08,245.44 C205.95,241.87 205.80,240.00 208.63,240.00 C209.54,240.00 210.01,239.30 209.81,238.25 C209.54,236.86 208.43,236.50 204.48,236.50 C199.65,236.50 199.44,236.62 197.61,240.48 C196.58,242.68 195.36,247.75 194.91,251.76 C194.46,255.76 193.80,259.51 193.45,260.09 C192.54,261.55 189.33,258.46 188.56,255.39 C188.05,253.34 187.11,253.05 186.51,254.11 C187.08,249.82 187.45,249.13 188.60,250.08 C189.37,250.72 190.00,251.82 190.00,252.52 C190.00,253.21 190.62,254.02 191.37,254.31 C192.36,254.69 192.92,253.63 193.34,250.51 C193.67,248.13 194.95,244.10 196.19,241.55 C198.17,237.48 198.27,236.66 197.06,234.71 C195.81,232.70 195.83,232.62 197.31,233.85 C198.70,234.99 199.20,234.95 200.60,233.54 C202.00,232.15 203.54,231.99 210.38,232.57 C218.40,233.25 221.25,234.10 223.73,236.59 C226.41,239.27 225.16,240.16 219.67,239.48 C215.23,238.92 214.33,239.07 214.33,240.36 C214.33,241.22 214.93,242.14 215.67,242.43 C217.25,243.03 217.47,246.00 215.93,246.00 C215.35,246.00 213.96,245.51 212.85,244.92 C210.39,243.60 209.28,244.43 210.89,246.37 C213.60,249.63 214.74,264.68 212.59,268.82 C211.12,271.68 211.13,271.91 212.87,272.46 C213.89,272.78 215.41,272.78 216.26,272.45 C218.21,271.71 219.59,273.81 218.11,275.29 C217.50,275.90 217.00,277.43 217.00,278.70 C217.00,281.65 213.78,281.78 209.23,279.00 C205.01,276.42 204.82,276.45 202.80,280.01 C200.74,283.61 199.96,283.66 193.34,280.58 ZM 113.59 377.07 C106.16,381.04 105.45,380.41 111.05,374.84 C114.05,371.86 118.25,366.84 120.40,363.67 C123.93,358.46 124.18,357.70 123.01,355.51 C122.03,353.69 121.98,352.42 122.81,350.30 C124.96,344.78 124.69,337.81 122.17,333.76 C119.68,329.74 119.61,326.53 122.01,326.45 C124.00,326.39 123.38,324.06 120.55,321.00 C116.93,317.07 116.09,314.76 116.93,310.97 L 117.69 307.50 L 119.38 313.13 C120.57,317.08 122.53,320.35 126.00,324.13 C129.10,327.50 130.94,330.43 130.96,332.00 C130.99,334.29 130.85,334.22 129.25,331.06 C127.31,327.25 125.00,325.89 125.00,328.55 C125.00,329.50 126.80,332.23 129.00,334.62 C131.67,337.51 133.00,339.88 133.00,341.73 C133.00,343.26 133.40,345.90 133.88,347.59 C134.37,349.28 135.06,353.33 135.43,356.58 L 136.10 362.50 L 126.38 368.96 C121.04,372.52 115.28,376.17 113.59,377.07 ZM 239.00 587.50 L 239.00 589.52 L 235.64 589.50 L 234.74 586.50 C234.24,584.85 233.64,574.77 233.39,564.09 C233.03,548.18 233.16,544.80 230.16,542.61 C237.32,545.94 252.50,550.99 256.00,551.02 C259.26,551.06 278.35,555.36 283.50,557.23 C286.32,558.25 288.00,559.68 289.20,562.09 C290.14,563.96 290.93,565.84 290.95,566.25 C291.07,568.09 288.07,566.68 283.98,562.98 C279.00,558.47 275.52,557.20 265.75,556.32 C259.91,555.79 259.00,555.93 259.00,557.35 C259.00,560.57 252.89,558.88 248.30,554.41 C246.95,553.10 240.09,551.58 239.26,552.41 C238.96,552.71 239.26,553.61 239.92,554.41 C240.88,555.56 240.83,556.36 239.69,558.18 C237.16,562.22 236.80,572.16 238.91,578.97 C239.95,582.29 240.39,585.00 239.90,585.00 C239.40,585.00 239.00,586.12 239.00,587.50 ZM 260.71 381.14 C258.54,382.54 256.19,384.19 254.73,385.36 C252.11,387.45 249.66,388.45 246.73,388.63 C244.40,388.77 242.13,388.92 241.68,388.95 C241.23,388.98 241.13,389.84 241.46,390.87 C241.88,392.19 241.25,393.26 239.32,394.53 C236.60,396.31 236.57,396.30 234.54,393.48 C233.42,391.91 231.06,389.00 229.31,387.01 C227.56,385.02 226.24,382.59 226.38,381.62 C226.52,380.64 228.40,378.23 230.56,376.25 C232.66,374.33 233.89,372.58 233.37,372.29 C235.86,372.15 238.49,372.18 241.49,372.35 C246.45,372.65 250.56,372.92 250.62,372.95 C250.69,372.98 251.02,374.34 251.34,375.97 C252.04,379.43 257.68,382.49 260.71,381.14 ZM 147.37 358.14 C140.04,361.38 139.68,361.07 140.20,352.09 C140.59,345.43 141.30,342.87 144.71,335.84 C146.94,331.25 149.93,325.02 151.37,322.00 C152.80,318.98 155.30,315.02 156.91,313.21 C159.57,310.21 159.89,310.09 160.45,311.85 C161.08,313.82 158.97,319.41 155.83,324.09 C154.18,326.54 152.44,337.62 151.59,350.97 C151.25,356.23 151.10,356.49 147.37,358.14 ZM 249.76 513.85 C250.96,514.59 274.65,514.35 276.67,513.57 C277.40,513.29 278.00,511.91 278.00,510.50 C278.00,509.09 278.67,507.68 279.50,507.36 C281.18,506.72 281.57,504.00 279.98,504.00 C279.42,504.00 278.48,502.96 277.91,501.70 C275.88,497.25 273.73,496.87 268.89,500.08 C266.48,501.68 261.20,504.63 257.17,506.62 C250.05,510.15 247.61,512.52 249.76,513.85 ZM 139.75 330.94 C137.40,335.38 135.65,336.86 134.65,335.24 C134.11,334.37 132.00,318.99 132.00,315.94 C132.00,313.94 141.55,303.24 142.50,304.18 C142.88,304.56 142.71,307.11 142.12,309.85 C141.54,312.60 141.29,317.47 141.57,320.68 C142.00,325.51 141.69,327.27 139.75,330.94 ZM 265.56 331.84 C266.70,341.13 268.37,336.14 269.11,321.24 C269.49,313.68 270.11,306.26 270.50,304.75 C270.99,302.88 270.83,302.00 270.01,302.00 C269.35,302.00 268.58,302.90 268.29,304.00 C267.79,305.92 266.00,306.85 266.00,305.19 C266.00,304.75 265.39,303.55 264.65,302.54 C263.39,300.81 263.20,300.90 261.65,304.00 C259.85,307.60 259.47,314.01 260.90,316.76 C263.16,321.14 264.95,326.94 265.56,331.84 ZM 224.00 265.50 C221.12,264.46 220.50,263.73 220.48,261.37 C220.47,259.79 219.90,257.51 219.22,256.29 C218.16,254.41 218.24,253.94 219.75,253.13 C220.72,252.61 222.82,252.43 224.41,252.74 C226.31,253.10 227.07,252.93 226.64,252.23 C225.88,251.00 228.57,247.96 230.32,248.08 C231.13,248.13 231.15,248.30 230.40,248.61 C229.17,249.12 229.73,253.72 231.12,254.57 C232.38,255.35 232.21,261.45 230.84,264.45 C229.56,267.26 229.09,267.33 224.00,265.50 ZM 149.40 316.16 C149.14,317.07 148.27,318.07 147.46,318.38 C145.84,319.00 145.49,316.82 145.93,308.75 C146.08,305.94 145.76,304.00 145.13,304.00 C144.56,304.00 145.19,301.80 146.54,299.10 C147.89,296.41 149.00,293.67 149.00,293.01 C149.00,291.34 152.92,286.00 154.14,286.00 C154.69,286.00 154.85,286.89 154.51,287.97 C154.17,289.05 153.87,292.17 153.85,294.90 C153.82,297.97 153.32,300.05 152.53,300.35 C151.77,300.64 150.97,303.60 150.56,307.67 C150.19,311.43 149.66,315.25 149.40,316.16 ZM 150.50 419.00 C150.84,418.45 152.55,417.99 154.31,417.99 C158.17,417.97 162.50,415.93 162.50,414.13 C162.50,413.41 159.62,411.32 156.09,409.47 L 149.69 406.12 L 146.90 409.63 C144.03,413.23 144.01,415.00 146.81,418.25 C148.51,420.23 149.60,420.45 150.50,419.00 ZM 306.89 589.97 L 293.33 589.88 C294.98,589.70 294.99,589.02 294.98,586.75 C294.97,584.96 294.07,581.54 292.98,579.14 C290.63,573.96 290.53,572.63 292.41,571.07 C293.55,570.13 294.35,570.59 296.50,573.41 C299.86,577.82 302.70,583.34 303.52,587.10 C304.01,589.34 304.39,589.87 306.89,589.97 ZM 172.46 226.93 C172.10,226.35 171.22,226.08 170.52,226.35 C169.82,226.62 168.74,226.34 168.12,225.72 C166.70,224.30 166.66,221.00 168.06,221.00 C168.64,221.00 168.84,220.55 168.50,220.00 C168.16,219.45 168.81,219.00 169.94,219.00 C171.12,219.00 172.00,218.35 172.00,217.48 C172.00,213.32 181.85,199.06 182.79,201.87 C182.95,202.35 181.66,205.31 179.93,208.47 C177.36,213.15 176.80,215.27 176.87,220.08 C176.94,224.90 176.61,226.14 175.04,226.98 C173.71,227.69 172.92,227.68 172.46,226.93 ZM 202.50 437.77 C204.15,438.83 205.67,439.26 205.87,438.73 C206.08,438.20 205.85,437.48 205.37,437.13 C204.89,436.79 204.55,435.38 204.61,434.00 C204.68,432.28 203.45,430.33 200.64,427.75 C196.04,423.51 195.00,423.17 195.00,425.93 C195.00,428.27 191.45,429.62 189.51,428.01 C188.75,427.38 186.86,427.02 185.31,427.23 C182.85,427.56 183.57,428.13 191.00,431.73 C195.68,433.99 200.85,436.71 202.50,437.77 ZM 221.49 374.23 C217.43,375.25 213.03,376.55 209.50,377.83 C202.85,380.26 197.37,382.28 192.95,383.95 C195.32,382.95 197.36,381.91 197.96,381.35 C199.22,380.19 198.97,380.00 196.21,380.00 C193.22,380.00 193.00,379.77 193.00,376.56 C193.00,374.67 193.45,372.84 194.00,372.50 C194.55,372.16 195.00,372.29 195.00,372.79 C195.00,373.29 197.05,373.49 199.56,373.24 C202.95,372.91 204.60,373.23 206.03,374.52 C207.99,376.30 211.57,376.29 221.49,374.23 ZM 292.81 387.28 C294.08,384.60 296.07,382.98 301.34,380.33 C308.74,376.60 311.00,376.59 311.00,380.29 C311.00,382.75 307.42,384.83 296.01,388.99 L 291.14 390.78 ZM 205.67 303.34 C206.26,301.92 206.47,299.94 205.88,298.82 C203.02,293.35 206.99,286.87 210.99,290.49 C212.71,292.05 213.07,291.89 217.27,287.82 C219.72,285.44 221.92,282.88 222.15,282.12 C222.75,280.22 228.08,280.39 229.52,282.36 C230.17,283.24 230.89,283.77 231.13,283.53 C231.37,283.29 231.57,283.97 231.57,285.05 C231.57,286.22 230.89,287.00 229.86,287.00 C228.92,287.00 227.10,288.30 225.82,289.88 C225.59,290.17 225.32,290.47 225.02,290.78 C225.18,290.12 226.20,288.70 227.44,287.47 C230.19,284.72 229.96,284.41 224.86,284.14 C221.65,283.97 220.69,284.55 216.54,289.16 C213.97,292.03 210.27,296.76 208.33,299.69 C207.40,301.10 206.45,302.39 205.67,303.34 ZM 135.21 357.10 C134.86,349.85 133.09,343.85 131.10,343.19 C130.03,342.84 129.87,343.31 130.43,345.12 C130.84,346.43 131.16,348.36 131.14,349.41 C131.12,350.46 131.52,352.10 132.03,353.06 C132.70,354.31 132.55,354.96 131.48,355.37 C130.67,355.68 130.00,356.48 130.00,357.15 C130.00,357.82 128.99,359.45 127.75,360.77 C125.57,363.09 125.56,363.20 127.38,364.53 C128.93,365.67 129.78,365.68 132.38,364.61 C135.45,363.33 135.50,363.21 135.21,357.10 ZM 322.19 369.95 C322.12,369.97 322.02,369.99 321.88,369.99 C320.99,370.00 316.29,369.31 311.43,368.46 C306.57,367.61 300.21,366.89 297.29,366.86 C294.38,366.82 291.74,366.39 291.44,365.90 C290.60,364.54 285.67,364.82 281.75,366.46 C279.83,367.26 278.03,367.69 277.75,367.41 C277.47,367.14 275.16,367.92 272.62,369.15 C268.82,371.00 268.00,371.88 268.00,374.10 C268.00,376.28 267.06,377.36 263.25,379.58 C263.00,379.72 262.74,379.88 262.47,380.04 C264.22,378.69 265.01,377.13 264.05,376.53 C263.31,376.07 263.31,375.29 264.05,373.91 C264.63,372.83 265.44,372.15 265.86,372.41 C266.27,372.67 267.44,371.78 268.45,370.44 C269.46,369.10 271.25,368.00 272.44,368.00 C274.98,368.00 277.01,366.24 276.98,364.05 C276.97,362.68 276.85,362.68 276.00,364.00 C274.90,365.70 274.70,364.95 275.61,362.58 C275.94,361.71 277.18,361.01 278.36,361.02 C280.07,361.03 280.20,361.22 279.03,361.96 C276.56,363.52 278.79,364.42 284.79,364.27 C287.93,364.19 295.45,365.17 301.50,366.46 C307.55,367.75 314.98,369.09 318.00,369.45 L 322.19 369.95 ZM 164.75 387.31 C168.41,388.27 169.96,387.93 171.01,385.97 C171.61,384.86 172.47,384.17 172.91,384.45 C173.36,384.72 173.67,383.97 173.61,382.78 C173.54,381.44 172.21,379.86 170.13,378.64 L 166.76 376.67 L 164.90 379.09 C162.50,382.21 162.42,386.70 164.75,387.31 ZM 226.76 350.02 C227.27,351.96 227.42,354.27 227.09,355.16 C226.55,356.65 226.15,356.64 222.23,355.10 C218.23,353.53 218.06,353.30 219.45,351.46 C220.27,350.38 220.95,348.56 220.97,347.40 C220.99,346.25 221.85,344.33 222.88,343.13 L 224.77 340.96 L 225.30 343.73 C225.60,345.25 226.25,348.08 226.76,350.02 ZM 217.99 504.00 C217.53,504.00 216.98,504.79 216.78,505.75 C216.57,506.71 216.11,505.12 215.74,502.21 C215.19,497.77 215.39,496.61 217.01,494.99 C219.04,492.96 219.19,493.05 221.74,497.86 C223.46,501.09 223.32,503.49 221.34,505.13 C220.04,506.20 219.58,506.22 219.25,505.25 C219.02,504.56 218.45,504.00 217.99,504.00 ZM 188.34 394.39 C190.47,397.65 193.27,397.90 192.82,394.79 C192.62,393.43 191.54,392.32 190.00,391.89 C187.96,391.33 187.87,391.18 189.50,391.07 C190.60,391.00 193.04,389.67 194.93,388.10 L 198.36 385.26 L 187.15 388.99 C180.98,391.05 175.62,393.08 175.22,393.52 C174.82,393.96 175.38,394.00 176.45,393.61 C177.53,393.22 180.26,392.65 182.52,392.34 C186.15,391.84 186.82,392.08 188.34,394.39 ZM 288.27 589.85 L 274.93 589.76 L 274.28 589.76 C278.03,589.59 280.00,589.32 280.00,588.99 C280.00,588.43 277.99,585.51 275.54,582.50 C265.65,570.35 267.72,569.50 278.14,581.43 C284.21,588.37 285.32,589.59 288.27,589.85 ZM 181.64 470.25 C177.26,473.02 173.00,473.87 173.00,471.98 C173.00,470.56 182.16,464.88 183.91,465.22 C186.72,465.77 185.92,467.55 181.64,470.25 ZM 172.05 376.56 C172.76,377.41 174.48,377.97 175.91,377.80 C178.14,377.54 178.45,377.08 178.17,374.51 C177.76,370.73 177.64,370.62 174.50,371.41 C171.39,372.19 170.31,374.46 172.05,376.56 ZM 222.70 435.62 C226.76,439.34 228.32,440.12 225.52,437.03 C224.26,435.63 223.92,434.17 224.34,432.05 C224.79,429.80 224.51,428.82 223.22,428.15 C218.01,425.48 217.63,430.97 222.70,435.62 ZM 257.78 553.17 C258.62,552.63 256.97,551.76 253.05,550.67 C246.37,548.82 244.00,548.59 244.00,549.82 C244.00,552.23 255.05,554.91 257.78,553.17 ZM 186.00 454.41 C186.00,457.22 184.48,456.76 181.00,452.88 C176.97,448.39 176.50,447.43 177.93,446.54 C179.21,445.75 186.00,452.37 186.00,454.41 ZM 93.00 380.49 C95.33,380.92 98.22,380.87 100.21,380.11 C101.71,379.54 103.16,379.44 103.43,379.89 C103.71,380.34 102.22,381.22 100.12,381.85 C94.94,383.40 92.27,386.02 89.79,392.51 C90.53,390.44 91.43,387.98 92.52,385.00 C93.46,382.45 93.67,381.12 93.00,380.49 ZM 133.26 301.50 C132.67,309.66 131.44,311.85 130.43,306.50 C129.91,303.69 130.24,301.71 131.75,298.62 L 133.77 294.50 ZM 249.50 360.92 C249.50,356.65 246.98,356.26 245.56,360.31 C244.79,362.49 244.90,363.33 246.04,364.04 C248.41,365.54 249.50,364.56 249.50,360.92 ZM 244.77 428.37 C244.54,427.34 245.01,425.72 245.81,424.77 C247.01,423.35 247.04,422.76 246.00,421.49 C245.29,420.65 245.03,419.64 245.41,419.25 C246.24,418.42 247.78,420.60 248.64,423.84 C249.07,425.46 248.64,426.81 247.23,428.22 C245.28,430.17 245.18,430.17 244.77,428.37 ZM 229.68 439.60 C229.97,440.37 230.51,441.00 230.87,441.00 C232.27,441.00 239.00,435.87 239.00,434.81 C239.00,434.18 238.20,434.41 237.17,435.35 C236.17,436.26 234.22,437.00 232.84,437.00 C229.83,437.00 228.95,437.72 229.68,439.60 ZM 160.00 292.62 C160.00,293.38 159.59,294.00 159.09,294.00 C158.59,294.00 158.03,291.59 157.84,288.65 C157.53,283.70 157.64,283.37 159.31,284.40 C160.64,285.21 160.97,286.26 160.56,288.38 C160.25,289.96 160.00,291.87 160.00,292.62 ZM 159.00 452.93 C159.00,454.38 155.69,454.29 154.20,452.80 C152.50,451.10 152.71,449.00 154.57,449.00 C156.37,449.00 159.00,451.34 159.00,452.93 ZM 242.96 501.81 C240.50,504.45 240.36,504.47 239.78,502.25 C239.05,499.43 239.99,498.00 242.58,498.00 C245.53,498.00 245.63,498.95 242.96,501.81 ZM 238.83 505.51 C238.64,505.69 237.26,506.15 235.75,506.53 C232.68,507.30 232.12,506.02 234.50,503.64 C235.32,502.82 236.02,501.55 236.04,500.82 C236.06,500.09 236.77,500.78 237.62,502.34 C238.46,503.90 239.01,505.33 238.83,505.51 ZM 180.16 318.25 C180.07,319.21 179.55,320.00 179.00,320.00 C178.45,320.00 178.04,317.64 178.08,314.75 C178.12,311.86 178.39,310.07 178.66,310.76 C178.94,311.45 179.49,311.82 179.87,311.58 C180.50,311.19 180.59,313.35 180.16,318.25 ZM 173.50 220.01 C174.51,223.17 176.88,222.44 176.78,219.00 C176.73,217.26 176.15,216.00 175.41,216.00 C173.57,216.00 172.77,217.69 173.50,220.01 ZM 217.39 268.42 C217.73,267.55 218.00,266.65 218.00,266.42 C218.00,265.16 220.70,266.29 221.77,268.00 C222.92,269.84 222.77,270.00 219.90,270.00 C217.47,270.00 216.92,269.65 217.39,268.42 ZM 259.23 520.83 C260.82,522.42 263.50,521.90 263.50,519.99 C263.50,519.11 262.37,518.37 260.75,518.18 C257.81,517.85 257.24,518.84 259.23,520.83 ZM 188.79 497.43 C189.74,499.53 189.65,499.85 188.12,499.73 C185.49,499.54 183.89,497.51 185.28,496.12 C186.92,494.48 187.55,494.72 188.79,497.43 ZM 245.81 489.25 C246.14,490.96 244.80,491.37 242.25,490.34 C240.13,489.48 240.87,487.27 243.24,487.39 C244.51,487.45 245.62,488.25 245.81,489.25 ZM 164.67 372.33 C164.98,372.65 165.17,372.84 165.40,372.91 C165.76,373.03 166.22,372.85 167.44,372.38 C168.69,371.91 168.79,371.45 167.90,370.38 C167.27,369.62 166.14,369.00 165.38,369.00 C163.95,369.00 163.49,371.16 164.67,372.33 ZM 180.45 437.05 C181.07,437.67 180.82,438.61 179.74,439.68 C178.18,441.25 178.03,441.24 177.39,439.58 C176.60,437.51 178.96,435.56 180.45,437.05 ZM 243.98 402.48 C243.28,401.64 242.94,400.73 243.21,400.45 C244.03,399.63 246.80,401.04 247.39,402.58 C248.12,404.48 245.58,404.40 243.98,402.48 ZM 171.48 222.92 C172.19,225.18 174.01,225.78 173.98,223.75 C173.96,221.91 172.21,219.45 171.46,220.20 C171.11,220.56 171.11,221.78 171.48,222.92 ZM 142.83 293.92 C142.65,295.25 141.94,296.53 141.25,296.76 C139.57,297.31 139.72,295.94 141.61,293.50 C143.13,291.54 143.15,291.55 142.83,293.92 ZM 160.91 386.75 C162.05,385.25 162.01,385.00 160.62,385.00 C159.63,385.00 159.00,385.83 159.00,387.17 C159.00,388.36 159.13,389.15 159.28,388.92 C159.44,388.69 160.17,387.71 160.91,386.75 ZM 172.32 512.61 C172.03,513.38 171.16,514.00 170.39,514.00 C168.31,514.00 168.71,512.31 170.93,511.73 C172.28,511.38 172.69,511.64 172.32,512.61 ZM 202.00 313.00 C202.00,312.45 201.55,312.00 201.00,312.00 C200.45,312.00 200.00,312.45 200.00,313.00 C200.00,313.55 200.45,314.00 201.00,314.00 C201.55,314.00 202.00,313.55 202.00,313.00 ZM 166.00 376.00 C166.00,375.45 165.55,375.00 165.00,375.00 C164.45,375.00 164.00,375.45 164.00,376.00 C164.00,376.55 164.45,377.00 165.00,377.00 C165.55,377.00 166.00,376.55 166.00,376.00 ZM 267.00 569.00 C267.00,569.55 266.55,570.00 266.00,570.00 C265.45,570.00 265.00,569.55 265.00,569.00 C265.00,568.45 265.45,568.00 266.00,568.00 C266.55,568.00 267.00,568.45 267.00,569.00 ZM 204.00 461.94 C204.00,461.36 204.45,461.16 205.00,461.50 C205.55,461.84 206.00,462.32 206.00,462.56 C206.00,462.80 205.55,463.00 205.00,463.00 C204.45,463.00 204.00,462.52 204.00,461.94 ZM 113.17 314.53 C112.69,315.57 112.20,316.68 111.67,317.85 C107.88,326.37 102.98,338.53 98.71,349.74 C104.14,335.23 109.07,323.24 113.17,314.53 ZM 124.76 297.45 C122.53,299.07 120.79,300.86 119.15,303.22 C120.17,301.62 121.07,300.42 121.85,299.67 C122.52,299.02 123.50,298.27 124.76,297.45 ZM 183.27 265.42 C183.47,264.91 183.68,264.38 183.90,263.88 C184.63,262.20 185.42,259.57 185.96,257.15 C185.84,258.74 184.99,261.63 183.98,263.86 C183.72,264.44 183.48,264.96 183.27,265.42 ZM 89.19 378.74 C89.49,379.24 90.19,379.67 91.12,380.00 C91.06,380.00 91.00,380.00 90.94,380.00 C89.91,380.00 89.31,379.73 89.19,378.74 ZM 187.59 506.07 C188.64,504.41 190.02,502.50 191.15,501.21 C191.52,500.78 191.93,500.24 192.37,499.63 C191.72,500.64 191.17,501.40 190.80,501.80 C189.95,502.73 188.73,504.36 187.59,506.07 ZM 88.78 395.40 C88.76,395.46 88.74,395.51 88.72,395.57 C87.50,399.35 86.65,402.37 86.15,404.82 C86.62,402.21 87.23,399.89 88.78,395.40 ZM 243.25 510.00 C241.74,510.01 239.15,511.14 237.50,512.52 L 234.63 514.93 L 234.50 514.93 L 237.50 512.47 C239.15,511.12 241.74,510.01 243.25,510.00 ZM 202.08 301.31 C202.61,303.25 203.46,304.86 204.01,304.99 C203.99,305.00 203.97,305.00 203.95,305.00 C203.48,305.00 202.64,303.34 202.08,301.31 ZM 220.87 294.07 C220.64,294.20 220.41,294.33 220.20,294.44 C220.14,294.47 220.08,294.50 220.02,294.53 C220.30,294.37 220.58,294.22 220.87,294.07 ZM 133.84 475.23 C134.72,471.71 135.93,467.69 137.49,463.00 L 137.95 461.61 C137.80,462.06 137.65,462.52 137.49,463.00 C135.93,467.69 134.72,471.71 133.84,475.23 ZM 212.14 301.23 C211.82,301.45 211.50,301.67 211.18,301.88 C211.52,301.65 211.84,301.44 212.14,301.23 ZM 216.64 297.05 C216.51,297.22 216.41,297.37 216.36,297.51 C216.35,297.52 216.35,297.54 216.34,297.55 C216.35,297.52 216.36,297.49 216.38,297.46 C216.42,297.34 216.51,297.20 216.64,297.05 Z" fill="rgba(199,175,146,1)"/>
<path d="M 132.00 587.40 C132.00,585.98 131.27,582.29 130.37,579.20 C128.56,572.98 128.85,565.54 131.49,550.40 C133.02,541.62 132.91,537.24 130.85,524.94 C129.65,517.78 130.58,514.50 134.90,510.59 C137.66,508.10 137.55,505.49 134.39,498.37 C130.57,489.75 131.27,481.77 137.49,463.00 C141.91,449.66 142.28,447.77 142.18,439.32 L 142.07 430.14 L 145.78 430.71 C147.83,431.03 151.77,432.54 154.55,434.06 C157.32,435.59 161.37,437.16 163.55,437.57 C165.72,437.97 168.47,438.93 169.66,439.71 C171.11,440.65 172.03,440.76 172.47,440.05 C172.83,439.47 171.97,438.55 170.56,438.00 C169.15,437.45 166.87,436.56 165.48,436.02 C162.85,434.99 161.00,431.50 161.00,427.53 C161.00,425.63 162.34,424.53 168.18,421.61 C172.13,419.64 175.54,418.21 175.77,418.43 C176.59,419.26 171.92,423.00 170.06,423.00 C168.99,423.00 167.83,423.47 167.47,424.04 C166.29,425.96 169.00,427.75 172.99,427.69 C175.16,427.66 177.74,428.31 178.72,429.13 C179.70,429.94 184.04,432.33 188.37,434.42 L 196.23 438.22 L 195.70 442.17 C195.38,444.59 195.72,447.15 196.58,448.80 C198.61,452.69 198.44,457.00 196.25,457.01 C195.09,457.01 195.49,457.53 197.42,458.54 C200.87,460.33 201.96,459.34 201.98,454.40 C201.99,452.60 202.83,450.56 204.00,449.50 C205.77,447.90 206.00,447.87 206.00,449.32 C206.00,450.21 205.01,452.99 203.79,455.50 C201.90,459.38 201.75,460.50 202.74,463.11 C203.73,465.75 203.68,466.09 202.35,465.58 C201.34,465.19 200.63,465.71 200.27,467.08 C199.93,468.37 199.46,468.74 199.03,468.05 C198.58,467.32 196.36,468.40 192.66,471.14 C188.04,474.57 187.10,475.74 187.62,477.43 C187.98,478.57 188.59,479.73 188.98,480.00 C189.38,480.27 189.94,481.17 190.23,482.00 C190.66,483.19 190.93,483.09 191.55,481.50 C191.99,480.40 193.41,478.20 194.72,476.61 C196.03,475.02 196.88,473.12 196.60,472.39 C196.32,471.66 196.52,470.80 197.04,470.47 C197.57,470.15 198.00,470.39 198.00,471.00 C198.00,471.61 198.42,471.86 198.93,471.54 C199.44,471.23 200.14,471.88 200.50,472.99 C200.85,474.09 201.55,475.00 202.07,475.00 C203.28,475.00 203.28,480.71 202.07,481.46 C201.55,481.78 200.33,480.68 199.35,479.02 C197.50,475.88 196.52,475.35 195.54,476.93 C195.23,477.44 196.10,479.08 197.48,480.58 C198.87,482.07 200.00,483.91 200.00,484.67 C200.00,486.91 194.26,497.64 191.15,501.21 C189.57,503.02 187.49,506.03 186.53,507.90 C183.88,513.09 179.07,517.11 176.90,515.95 C174.56,514.69 174.31,514.74 173.63,516.51 C173.31,517.34 173.54,519.09 174.14,520.40 C175.42,523.21 181.37,524.57 185.50,523.00 C189.08,521.64 195.72,521.74 196.60,523.16 C197.74,525.00 193.52,527.69 188.29,528.47 C185.65,528.87 183.01,529.59 182.40,530.09 C181.80,530.59 178.87,531.44 175.90,532.00 C167.98,533.46 160.13,537.80 156.29,542.84 C150.70,550.17 152.62,555.61 158.29,548.51 C161.69,544.24 166.13,541.82 169.68,542.29 C173.00,542.73 174.88,546.74 172.23,547.72 C170.15,548.48 169.04,549.97 169.02,552.00 C169.00,553.91 177.29,554.11 179.15,552.25 C179.84,551.56 180.80,551.00 181.30,551.00 C181.79,551.00 183.39,550.16 184.85,549.13 C186.31,548.10 188.51,546.95 189.75,546.56 C193.42,545.42 192.46,548.01 187.19,553.51 C176.84,564.30 170.06,577.26 170.48,585.44 L 170.71 590.00 L 151.35 590.00 L 132.00 590.00 L 132.00 587.40 ZM 172.32 512.61 C172.69,511.64 172.28,511.38 170.93,511.73 C168.71,512.31 168.31,514.00 170.39,514.00 C171.16,514.00 172.03,513.38 172.32,512.61 ZM 188.79 497.43 C187.55,494.72 186.92,494.48 185.28,496.12 C183.89,497.51 185.49,499.54 188.12,499.73 C189.65,499.85 189.74,499.53 188.79,497.43 ZM 181.64 470.25 C185.92,467.55 186.72,465.77 183.91,465.22 C182.16,464.88 173.00,470.56 173.00,471.98 C173.00,473.87 177.26,473.02 181.64,470.25 ZM 186.00 454.41 C186.00,452.37 179.21,445.75 177.93,446.54 C176.50,447.43 176.97,448.39 181.00,452.88 C184.48,456.76 186.00,457.22 186.00,454.41 ZM 159.00 452.93 C159.00,451.34 156.37,449.00 154.57,449.00 C152.71,449.00 152.50,451.10 154.20,452.80 C155.69,454.29 159.00,454.38 159.00,452.93 ZM 180.45 437.05 C178.96,435.56 176.60,437.51 177.39,439.58 C178.03,441.24 178.18,441.25 179.74,439.68 C180.82,438.61 181.07,437.67 180.45,437.05 ZM 239.00 587.50 C239.00,586.12 239.40,585.00 239.90,585.00 C240.39,585.00 239.95,582.29 238.91,578.97 C236.80,572.16 237.16,562.22 239.69,558.18 C240.83,556.36 240.88,555.56 239.92,554.41 C239.26,553.61 238.96,552.71 239.26,552.41 C240.09,551.58 246.95,553.10 248.30,554.41 C252.89,558.88 259.00,560.57 259.00,557.35 C259.00,555.93 259.91,555.79 265.75,556.32 C275.52,557.20 279.00,558.47 283.98,562.98 C288.07,566.68 291.07,568.09 290.95,566.25 C290.93,565.84 290.14,563.96 289.20,562.09 C288.00,559.68 286.32,558.25 283.50,557.23 C278.35,555.36 259.26,551.06 256.00,551.02 C252.00,550.98 232.71,544.38 227.63,541.31 C222.55,538.24 222.08,537.40 221.49,530.29 C221.27,527.65 220.62,523.93 220.05,522.01 C219.47,520.09 219.00,517.95 219.00,517.26 C219.00,515.07 224.94,515.86 228.40,518.50 C230.20,519.87 231.97,520.69 232.34,520.33 C232.70,519.96 233.00,520.60 233.00,521.75 C233.00,522.89 231.20,525.54 229.00,527.62 C226.80,529.71 225.00,531.73 225.00,532.13 C225.00,532.52 226.17,534.23 227.59,535.92 C230.76,539.69 236.26,540.26 238.00,537.00 C238.75,535.60 240.09,535.00 242.46,535.00 C244.33,535.00 246.51,534.35 247.31,533.55 C248.10,532.75 251.17,531.80 254.13,531.42 C257.08,531.05 260.17,530.16 261.00,529.45 C261.83,528.74 265.88,527.84 270.00,527.45 C274.12,527.06 278.06,526.30 278.74,525.76 C279.42,525.22 281.06,525.05 282.39,525.38 C284.51,525.91 284.89,526.75 285.53,532.24 C285.94,535.81 287.04,539.50 288.07,540.81 C290.29,543.64 289.66,545.61 285.92,547.54 C283.37,548.86 282.75,548.83 279.79,547.23 C272.97,543.55 261.00,540.74 261.00,542.82 C261.00,544.24 267.88,547.39 279.65,551.34 C285.23,553.21 290.86,555.48 292.15,556.39 C298.99,561.15 310.11,578.11 312.05,586.73 L 312.79 590.00 L 308.47 590.00 C304.52,590.00 304.10,589.75 303.52,587.10 C302.70,583.34 299.86,577.82 296.50,573.41 C294.35,570.59 293.55,570.13 292.41,571.07 C290.53,572.63 290.63,573.96 292.98,579.14 C294.07,581.54 294.97,584.96 294.98,586.75 C295.00,589.97 294.96,590.00 290.25,589.93 C285.57,589.85 285.39,589.73 278.14,581.43 C267.72,569.50 265.65,570.35 275.54,582.50 C277.99,585.51 280.00,588.43 280.00,588.99 C280.00,589.64 272.69,590.00 259.50,590.00 L 239.00 590.00 L 239.00 587.50 ZM 267.00 569.00 C267.00,568.45 266.55,568.00 266.00,568.00 C265.45,568.00 265.00,568.45 265.00,569.00 C265.00,569.55 265.45,570.00 266.00,570.00 C266.55,570.00 267.00,569.55 267.00,569.00 ZM 259.23 520.83 C257.24,518.84 257.81,517.85 260.75,518.18 C262.37,518.37 263.50,519.11 263.50,519.99 C263.50,521.90 260.82,522.42 259.23,520.83 ZM 235.25 519.26 C234.01,518.43 233.00,517.18 233.00,516.49 C233.00,515.79 232.37,514.97 231.60,514.68 C230.83,514.38 228.94,511.82 227.40,508.99 C225.01,504.61 224.42,504.07 223.44,505.42 C222.80,506.29 221.81,507.00 221.25,507.00 C220.68,507.00 219.95,507.67 219.64,508.50 C219.32,509.33 218.35,510.00 217.49,510.00 C214.50,510.00 211.96,506.32 210.54,499.91 C209.76,496.38 208.39,491.25 207.49,488.50 C206.36,485.05 206.03,481.70 206.42,477.70 C206.78,473.98 206.62,472.11 205.99,472.51 C205.45,472.84 205.00,472.42 205.00,471.56 C205.00,470.70 204.27,470.00 203.38,470.00 C202.00,470.00 201.96,469.76 203.09,468.39 C203.93,467.37 204.56,467.19 204.80,467.90 C205.00,468.51 205.58,468.76 206.09,468.45 C206.59,468.14 207.00,468.36 207.00,468.94 C207.00,469.52 207.45,470.00 208.00,470.00 C208.55,470.00 209.00,469.21 209.00,468.25 C209.00,466.77 210.11,466.46 216.09,466.24 C219.99,466.09 224.02,465.52 225.05,464.97 C226.45,464.22 229.62,464.86 237.77,467.51 C243.74,469.46 250.05,471.15 251.80,471.28 C253.55,471.40 255.21,472.12 255.50,472.88 C255.80,473.64 254.00,476.72 251.52,479.74 C246.86,485.40 245.51,488.93 248.68,487.16 C250.53,486.13 251.42,486.77 254.26,491.21 C256.13,494.14 256.55,497.00 255.11,497.00 C254.62,497.00 253.97,497.64 253.67,498.42 C253.20,499.65 253.58,499.65 256.50,498.43 C258.37,497.66 260.60,497.29 261.48,497.63 C262.79,498.13 262.97,497.68 262.51,495.05 C262.20,493.30 261.06,490.91 259.97,489.74 C257.71,487.31 257.87,487.80 257.60,482.23 C257.45,479.18 257.91,477.49 259.21,476.31 C260.91,474.77 261.13,474.79 262.48,476.58 C264.28,478.96 264.31,479.53 262.77,481.99 C261.69,483.72 262.00,484.39 265.26,487.47 C267.75,489.82 269.81,490.91 271.49,490.77 C272.87,490.66 274.00,490.21 274.00,489.78 C274.00,489.35 274.45,489.00 275.00,489.00 C277.29,489.00 275.75,491.82 272.50,493.57 C270.58,494.61 269.00,495.80 269.00,496.23 C269.00,496.65 268.55,497.00 267.99,497.00 C267.44,497.00 265.12,498.35 262.84,500.00 C260.56,501.65 258.18,503.00 257.54,503.00 C256.91,503.00 254.86,504.12 253.00,505.50 C251.14,506.88 248.80,508.00 247.81,508.00 C246.81,508.00 246.00,508.45 246.00,509.00 C246.00,509.55 244.76,510.00 243.25,510.00 C241.74,510.01 239.15,511.12 237.50,512.47 L 234.50 514.93 L 238.50 515.04 C240.70,515.10 244.40,515.45 246.72,515.82 C250.10,516.37 250.76,516.79 250.02,517.97 C249.51,518.79 247.41,519.52 245.30,519.61 C243.21,519.70 240.60,520.00 239.50,520.27 C238.40,520.55 236.49,520.09 235.25,519.26 ZM 217.99 504.00 C218.45,504.00 219.02,504.56 219.25,505.25 C219.58,506.22 220.04,506.20 221.34,505.13 C223.32,503.49 223.46,501.09 221.74,497.86 C219.19,493.05 219.04,492.96 217.01,494.99 C215.39,496.61 215.19,497.77 215.74,502.21 C216.11,505.12 216.57,506.71 216.78,505.75 C216.98,504.79 217.53,504.00 217.99,504.00 ZM 238.83 505.51 C239.01,505.33 238.46,503.90 237.62,502.34 C236.77,500.78 236.06,500.09 236.04,500.82 C236.02,501.55 235.32,502.82 234.50,503.64 C232.12,506.02 232.68,507.30 235.75,506.53 C237.26,506.15 238.64,505.69 238.83,505.51 ZM 242.96 501.81 C245.63,498.95 245.53,498.00 242.58,498.00 C239.99,498.00 239.05,499.43 239.78,502.25 C240.36,504.47 240.50,504.45 242.96,501.81 ZM 245.81 489.25 C245.62,488.25 244.51,487.45 243.24,487.39 C240.87,487.27 240.13,489.48 242.25,490.34 C244.80,491.37 246.14,490.96 245.81,489.25 ZM 249.76 513.85 C247.61,512.52 250.05,510.15 257.17,506.62 C261.20,504.63 266.48,501.68 268.89,500.08 C273.73,496.87 275.88,497.25 277.91,501.70 C278.48,502.96 279.42,504.00 279.98,504.00 C281.57,504.00 281.18,506.72 279.50,507.36 C278.67,507.68 278.00,509.09 278.00,510.50 C278.00,511.91 277.40,513.29 276.67,513.57 C274.65,514.35 250.96,514.59 249.76,513.85 ZM 229.68 439.60 C228.95,437.72 229.83,437.00 232.84,437.00 C234.22,437.00 236.17,436.26 237.17,435.35 C238.20,434.41 239.00,434.18 239.00,434.81 C239.00,435.87 232.27,441.00 230.87,441.00 C230.51,441.00 229.97,440.37 229.68,439.60 ZM 202.50 437.77 C200.85,436.71 195.68,433.99 191.00,431.73 C183.57,428.13 182.85,427.56 185.31,427.23 C186.86,427.02 188.75,427.38 189.51,428.01 C191.45,429.62 195.00,428.27 195.00,425.93 C195.00,423.17 196.04,423.51 200.64,427.75 C203.45,430.33 204.68,432.28 204.61,434.00 C204.55,435.38 204.89,436.79 205.37,437.13 C205.85,437.48 206.08,438.20 205.87,438.73 C205.67,439.26 204.15,438.83 202.50,437.77 ZM 222.70 435.62 C217.63,430.97 218.01,425.48 223.22,428.15 C224.51,428.82 224.79,429.80 224.34,432.05 C223.92,434.17 224.26,435.63 225.52,437.03 C228.32,440.12 226.76,439.34 222.70,435.62 ZM 86.13 412.82 C84.96,409.70 85.65,405.06 88.72,395.57 C91.56,386.80 94.19,383.62 100.12,381.85 C102.22,381.22 103.71,380.34 103.43,379.89 C103.16,379.44 101.71,379.54 100.21,380.11 C96.31,381.60 88.99,380.34 89.04,378.19 C89.14,374.33 103.17,336.93 111.67,317.85 C119.81,299.60 121.38,297.98 138.00,290.52 C160.68,280.34 172.76,273.84 174.14,271.07 C176.76,265.81 177.20,265.72 179.13,270.04 C180.14,272.30 182.52,275.95 184.41,278.17 L 187.86 282.19 L 185.84 285.85 C184.73,287.86 182.51,290.87 180.91,292.55 C177.73,295.88 177.17,298.00 179.48,298.00 C180.30,298.00 182.06,300.14 183.40,302.75 C185.16,306.18 186.01,307.06 186.46,305.92 C186.80,305.05 186.61,303.11 186.04,301.61 C183.49,294.90 185.99,294.13 191.26,300.00 C193.24,302.20 194.67,304.00 194.45,304.00 C194.24,304.00 195.17,306.09 196.53,308.65 C199.10,313.49 199.72,317.00 198.00,317.00 C197.45,317.00 197.00,316.37 197.00,315.61 C197.00,313.91 193.38,309.29 192.63,310.04 C192.33,310.34 193.18,314.16 194.51,318.54 C196.81,326.10 196.83,326.38 194.90,324.05 C193.22,322.03 192.70,321.86 191.95,323.05 C191.45,323.85 191.13,325.80 191.24,327.40 C191.39,329.43 190.78,330.73 189.22,331.77 C188.00,332.58 187.00,333.86 187.00,334.62 C187.00,335.38 186.59,336.00 186.08,336.00 C185.57,336.00 184.40,338.36 183.48,341.25 C180.12,351.71 178.74,354.17 176.53,353.57 C175.41,353.27 172.70,353.01 170.50,353.00 C165.20,352.96 163.13,351.72 165.10,349.76 C165.88,348.98 167.03,348.51 167.66,348.72 C169.22,349.24 172.99,343.72 173.04,340.85 C173.07,339.56 173.74,336.70 174.53,334.50 C175.67,331.34 175.77,328.82 175.03,322.50 C174.51,318.10 173.80,311.46 173.46,307.75 C173.12,304.04 172.43,301.00 171.92,301.00 C171.41,301.00 170.93,305.39 170.85,310.75 L 170.71 320.50 L 169.60 308.32 C168.63,297.81 167.71,293.49 166.75,295.08 C162.51,302.14 161.94,304.08 163.46,306.24 C166.38,310.42 164.94,348.72 161.71,352.79 C160.05,354.88 162.07,355.94 169.04,356.63 C177.62,357.49 179.00,358.30 179.00,362.47 C179.00,365.01 178.49,366.03 176.95,366.52 C175.83,366.87 174.27,366.64 173.50,366.00 C172.72,365.35 171.62,365.12 171.04,365.47 C170.47,365.83 170.00,365.64 170.00,365.06 C170.00,364.48 169.51,364.00 168.90,364.00 C168.30,364.00 166.42,363.01 164.73,361.81 L 161.65 359.61 L 157.28 364.56 C153.43,368.92 153.12,369.62 154.61,370.50 C155.54,371.05 157.22,372.51 158.33,373.75 C159.45,374.99 160.95,376.00 161.68,376.00 C162.41,376.00 163.00,376.83 163.00,377.85 C163.00,380.68 159.57,384.00 156.63,384.00 C153.25,384.00 153.32,384.42 157.23,387.91 C160.09,390.47 160.35,391.12 159.48,393.57 C158.94,395.09 157.99,396.50 157.38,396.71 C156.76,396.91 154.29,395.23 151.88,392.96 C149.47,390.69 145.40,387.76 142.83,386.44 L 138.16 384.05 L 133.33 386.13 C130.05,387.54 127.20,389.86 124.45,393.34 C121.37,397.25 119.57,398.62 116.95,399.07 C115.05,399.39 111.47,400.70 109.00,401.99 C106.53,403.27 102.06,405.06 99.09,405.95 C96.11,406.84 93.37,408.23 93.00,409.03 C90.95,413.44 90.13,414.53 88.65,414.82 C87.67,415.02 86.65,414.21 86.13,412.82 ZM 113.59 377.07 C115.28,376.17 121.04,372.52 126.38,368.96 L 136.10 362.50 L 135.43 356.58 C135.06,353.33 134.37,349.28 133.88,347.59 C133.40,345.90 133.00,343.26 133.00,341.73 C133.00,339.88 131.67,337.51 129.00,334.62 C126.80,332.23 125.00,329.50 125.00,328.55 C125.00,325.89 127.31,327.25 129.25,331.06 C130.85,334.22 130.99,334.29 130.96,332.00 C130.94,330.43 129.10,327.50 126.00,324.13 C122.53,320.35 120.57,317.08 119.38,313.13 L 117.69 307.50 L 116.93 310.97 C116.09,314.76 116.93,317.07 120.55,321.00 C123.38,324.06 124.00,326.39 122.01,326.45 C119.61,326.53 119.68,329.74 122.17,333.76 C124.69,337.81 124.96,344.78 122.81,350.30 C121.98,352.42 122.03,353.69 123.01,355.51 C124.18,357.70 123.93,358.46 120.40,363.67 C118.25,366.84 114.05,371.86 111.05,374.84 C105.45,380.41 106.16,381.04 113.59,377.07 ZM 147.37 358.14 C151.10,356.49 151.25,356.23 151.59,350.97 C152.44,337.62 154.18,326.54 155.83,324.09 C158.97,319.41 161.08,313.82 160.45,311.85 C159.89,310.09 159.57,310.21 156.91,313.21 C155.30,315.02 152.80,318.98 151.37,322.00 C149.93,325.02 146.94,331.25 144.71,335.84 C141.30,342.87 140.59,345.43 140.20,352.09 C139.68,361.07 140.04,361.38 147.37,358.14 ZM 139.75 330.94 C141.69,327.27 142.00,325.51 141.57,320.68 C141.29,317.47 141.54,312.60 142.12,309.85 C142.71,307.11 142.88,304.56 142.50,304.18 C141.55,303.24 132.00,313.94 132.00,315.94 C132.00,318.99 134.11,334.37 134.65,335.24 C135.65,336.86 137.40,335.38 139.75,330.94 ZM 180.16 318.25 C180.59,313.35 180.50,311.19 179.87,311.58 C179.49,311.82 178.94,311.45 178.66,310.76 C178.39,310.07 178.12,311.86 178.08,314.75 C178.04,317.64 178.45,320.00 179.00,320.00 C179.55,320.00 180.07,319.21 180.16,318.25 ZM 149.40 316.16 C149.66,315.25 150.19,311.43 150.56,307.67 C150.97,303.60 151.77,300.64 152.53,300.35 C153.32,300.05 153.82,297.97 153.85,294.90 C153.87,292.17 154.17,289.05 154.51,287.97 C154.85,286.89 154.69,286.00 154.14,286.00 C152.92,286.00 149.00,291.34 149.00,293.01 C149.00,293.67 147.89,296.41 146.54,299.10 C145.19,301.80 144.56,304.00 145.13,304.00 C145.76,304.00 146.08,305.94 145.93,308.75 C145.49,316.82 145.84,319.00 147.46,318.38 C148.27,318.07 149.14,317.07 149.40,316.16 ZM 133.26 301.50 L 133.77 294.50 L 131.75 298.62 C130.24,301.71 129.91,303.69 130.43,306.50 C131.44,311.85 132.67,309.66 133.26,301.50 ZM 142.83 293.92 C143.15,291.55 143.13,291.54 141.61,293.50 C139.72,295.94 139.57,297.31 141.25,296.76 C141.94,296.53 142.65,295.25 142.83,293.92 ZM 160.00 292.62 C160.00,291.87 160.25,289.96 160.56,288.38 C160.97,286.26 160.64,285.21 159.31,284.40 C157.64,283.37 157.53,283.70 157.84,288.65 C158.03,291.59 158.59,294.00 159.09,294.00 C159.59,294.00 160.00,293.38 160.00,292.62 ZM 144.00 406.50 C144.00,405.01 144.43,404.15 145.00,404.50 C145.55,404.84 146.00,405.74 146.00,406.50 C146.00,407.26 145.55,408.16 145.00,408.50 C144.43,408.85 144.00,407.99 144.00,406.50 ZM 188.34 394.39 C186.82,392.08 186.15,391.84 182.52,392.34 C180.26,392.65 177.53,393.22 176.45,393.61 C175.38,394.00 174.82,393.96 175.22,393.52 C175.62,393.08 180.98,391.05 187.15,388.99 L 198.36 385.26 L 194.93 388.10 C193.04,389.67 190.60,391.00 189.50,391.07 C187.87,391.18 187.96,391.33 190.00,391.89 C191.54,392.32 192.62,393.43 192.82,394.79 C193.27,397.90 190.47,397.65 188.34,394.39 ZM 176.22 387.33 C180.36,382.70 186.33,376.82 192.99,370.82 L 198.19 366.13 L 192.96 364.58 C184.11,361.95 184.03,361.50 191.19,354.58 C196.89,349.08 197.90,348.50 201.74,348.50 C204.08,348.50 206.00,348.84 206.00,349.25 C206.00,349.66 206.68,350.00 207.50,350.00 C209.74,350.00 209.30,348.00 206.00,343.13 C203.24,339.05 203.08,338.30 203.62,332.13 C203.94,328.48 204.17,324.54 204.12,323.36 C204.08,322.18 204.71,320.66 205.52,319.98 C206.81,318.92 207.00,319.82 207.00,326.88 C207.00,331.34 207.42,335.00 207.92,335.00 C208.45,335.00 208.64,331.66 208.38,327.25 L 207.91 319.50 L 210.10 323.50 C213.39,329.49 219.18,336.22 220.19,335.21 C221.06,334.34 216.73,324.86 214.25,322.20 C213.40,321.29 213.31,320.30 213.95,319.09 C215.51,316.17 221.65,312.02 224.94,311.66 C226.63,311.48 228.31,311.03 228.67,310.66 C229.04,310.30 229.95,310.00 230.71,310.00 C231.46,310.00 233.30,309.13 234.79,308.06 C238.81,305.18 241.57,304.99 241.21,307.63 C241.02,308.97 242.06,310.80 244.02,312.63 C248.46,316.73 250.31,320.55 249.03,322.94 C248.46,324.00 248.00,326.19 248.00,327.81 C248.00,331.26 245.57,337.45 242.89,340.87 C241.85,342.19 240.99,344.45 240.97,345.88 C240.94,348.40 240.88,348.42 239.47,346.56 C238.40,345.14 238.14,342.96 238.51,338.45 C238.87,334.06 238.58,331.43 237.52,329.38 C236.69,327.80 236.01,325.94 236.01,325.25 C236.00,324.56 235.61,324.00 235.12,324.00 C234.64,324.00 234.25,322.88 234.25,321.52 C234.25,320.15 234.64,319.28 235.12,319.58 C235.61,319.87 236.00,319.64 236.00,319.06 C236.00,317.44 234.21,317.80 233.19,319.62 C232.36,321.10 232.08,321.10 229.74,319.56 C227.97,318.41 226.97,318.23 226.51,318.99 C225.43,320.73 223.19,337.34 223.81,338.96 C224.65,341.15 226.06,335.08 225.36,332.30 C224.75,329.89 225.57,329.44 227.89,330.91 C228.95,331.58 229.16,333.58 228.79,339.39 C228.52,343.58 228.68,347.00 229.15,347.00 C229.62,347.00 230.00,345.56 230.00,343.80 C230.00,338.06 232.11,342.27 233.91,351.61 L 235.61 360.39 L 240.55 362.28 C246.60,364.59 247.57,365.05 252.04,367.76 L 255.57 369.90 L 259.79 367.76 C263.75,365.75 265.24,364.00 263.00,364.00 C262.45,364.00 262.00,362.73 262.00,361.17 C262.00,359.61 261.71,358.04 261.35,357.68 C260.99,357.32 260.60,353.72 260.48,349.68 C260.30,343.59 259.64,341.00 256.63,334.58 C254.63,330.31 253.00,326.41 253.00,325.91 C253.00,323.49 256.02,325.49 258.81,329.75 C260.52,332.36 262.58,335.40 263.38,336.50 C264.18,337.60 265.09,341.88 265.40,346.00 C266.81,364.41 266.75,364.29 273.97,361.39 C281.70,358.30 309.63,361.82 318.27,366.98 L 323.50 370.10 L 318.00 369.45 C314.98,369.09 307.55,367.75 301.50,366.46 C295.45,365.17 287.93,364.19 284.79,364.27 C278.79,364.42 276.56,363.52 279.03,361.96 C280.20,361.22 280.07,361.03 278.36,361.02 C277.18,361.01 275.94,361.71 275.61,362.58 C274.70,364.95 274.90,365.70 276.00,364.00 C276.85,362.68 276.97,362.68 276.98,364.05 C277.01,366.24 274.98,368.00 272.44,368.00 C271.25,368.00 269.46,369.10 268.45,370.44 C267.44,371.78 266.27,372.67 265.86,372.41 C265.44,372.15 264.63,372.83 264.05,373.91 C263.31,375.29 263.31,376.07 264.05,376.53 C265.26,377.28 263.68,379.56 260.92,381.04 C257.95,382.63 252.05,379.51 251.34,375.97 C251.02,374.34 250.69,372.98 250.62,372.95 C250.56,372.92 246.45,372.65 241.49,372.35 C235.06,371.97 230.34,372.29 224.99,373.47 C212.37,376.27 208.21,376.50 206.03,374.52 C204.60,373.23 202.95,372.91 199.56,373.24 C197.05,373.49 195.00,373.29 195.00,372.79 C195.00,372.29 194.55,372.16 194.00,372.50 C193.45,372.84 193.00,374.67 193.00,376.56 C193.00,379.77 193.22,380.00 196.21,380.00 C198.97,380.00 199.22,380.19 197.96,381.35 C197.16,382.09 193.80,383.70 190.50,384.92 C187.20,386.15 182.58,388.02 180.22,389.07 C173.61,392.05 172.46,391.55 176.22,387.33 ZM 226.76 350.02 C226.25,348.08 225.60,345.25 225.30,343.73 L 224.77 340.96 L 222.88 343.13 C221.85,344.33 220.99,346.25 220.97,347.40 C220.95,348.56 220.27,350.38 219.45,351.46 C218.06,353.30 218.23,353.53 222.23,355.10 C226.15,356.64 226.55,356.65 227.09,355.16 C227.42,354.27 227.27,351.96 226.76,350.02 ZM 164.75 387.31 C162.42,386.70 162.50,382.21 164.90,379.09 L 166.76 376.67 L 170.13 378.64 C172.21,379.86 173.54,381.44 173.61,382.78 C173.67,383.97 173.36,384.72 172.91,384.45 C172.47,384.17 171.61,384.86 171.01,385.97 C169.96,387.93 168.41,388.27 164.75,387.31 ZM 172.05 376.56 C170.31,374.46 171.39,372.19 174.50,371.41 C177.64,370.62 177.76,370.73 178.17,374.51 C178.45,377.08 178.14,377.54 175.91,377.80 C174.48,377.97 172.76,377.41 172.05,376.56 ZM 164.67 372.33 C163.49,371.16 163.95,369.00 165.38,369.00 C166.14,369.00 167.27,369.62 167.90,370.38 C168.79,371.45 168.69,371.91 167.44,372.38 C165.46,373.15 165.48,373.15 164.67,372.33 ZM 265.56 331.84 C264.95,326.94 263.16,321.14 260.90,316.76 C259.47,314.01 259.85,307.60 261.65,304.00 C263.20,300.90 263.39,300.81 264.65,302.54 C265.39,303.55 266.00,304.75 266.00,305.19 C266.00,306.85 267.79,305.92 268.29,304.00 C268.58,302.90 269.35,302.00 270.01,302.00 C270.83,302.00 270.99,302.88 270.50,304.75 C270.11,306.26 269.49,313.68 269.11,321.24 C268.37,336.14 266.70,341.13 265.56,331.84 ZM 201.56 305.06 C200.59,303.99 198.91,302.97 197.82,302.81 C195.27,302.41 193.20,298.39 189.95,287.50 C189.07,284.55 189.11,284.56 192.52,288.50 C194.43,290.70 197.13,293.65 198.52,295.06 C199.92,296.47 201.52,299.29 202.08,301.31 C202.64,303.34 203.48,305.00 203.95,305.00 C204.42,305.00 206.39,302.61 208.33,299.69 C210.27,296.76 213.97,292.03 216.54,289.16 C220.69,284.55 221.65,283.97 224.86,284.14 C229.96,284.41 230.19,284.72 227.44,287.47 C226.10,288.81 225.00,290.37 225.00,290.93 C225.00,291.50 223.18,292.89 220.95,294.02 C218.72,295.16 216.67,296.71 216.38,297.46 C215.90,298.70 214.35,299.87 205.91,305.34 C203.46,306.93 203.23,306.92 201.56,305.06 ZM 185.10 273.47 C181.44,269.29 181.45,269.43 183.98,263.86 C185.07,261.46 185.97,258.29 185.98,256.81 C186.01,253.24 187.78,252.27 188.56,255.39 C189.33,258.46 192.54,261.55 193.45,260.09 C193.80,259.51 194.46,255.76 194.91,251.76 C195.36,247.75 196.58,242.68 197.61,240.48 C199.44,236.62 199.65,236.50 204.48,236.50 C208.43,236.50 209.54,236.86 209.81,238.25 C210.01,239.30 209.54,240.00 208.63,240.00 C205.80,240.00 205.95,241.87 209.08,245.44 C212.63,249.49 211.78,250.31 208.07,246.41 L 205.65 243.85 L 204.41 246.17 C203.72,247.45 202.87,252.10 202.51,256.50 C201.59,267.73 201.41,268.16 197.74,267.80 C194.98,267.53 194.56,267.85 193.75,270.95 C192.94,274.03 190.62,276.88 188.85,276.97 C188.50,276.99 186.81,275.41 185.10,273.47 ZM 171.48 222.92 C171.11,221.78 171.11,220.56 171.46,220.20 C172.21,219.45 173.96,221.91 173.98,223.75 C174.01,225.78 172.19,225.18 171.48,222.92 ZM 173.50 220.01 C172.77,217.69 173.57,216.00 175.41,216.00 C176.15,216.00 176.73,217.26 176.78,219.00 C176.88,222.44 174.51,223.17 173.50,220.01 Z" fill="rgba(233,220,200,1)"/>
</g>
</svg>